<svg width="26" height="28" viewBox="0 0 26 28" fill="none" xmlns="http://www.w3.org/2000/svg">
<path d="M5.87498 6.95729C5.58675 6.95729 5.35283 7.19998 5.35283 7.49901C5.35283 7.79803 5.58675 8.04072 5.87498 8.04072C6.1632 8.04072 6.39712 7.79803 6.39712 7.49901C6.39712 7.19998 6.1632 6.95729 5.87498 6.95729Z" fill="#252525"/>
<path d="M10.5741 17.0868H9.00772V15.4618C9.00772 15.1626 8.7739 14.92 8.48557 14.92C8.19725 14.92 7.96348 15.1626 7.96348 15.4618V17.0868H6.39715C6.10882 17.0868 5.875 17.3294 5.875 17.6284C5.875 17.9275 6.10882 18.1702 6.39715 18.1702H7.96348V19.7952C7.96348 20.0943 8.1973 20.3369 8.48557 20.3369C8.77385 20.3369 9.00772 20.0943 9.00772 19.7952V18.1702H10.5741C10.8624 18.1702 11.0962 17.9276 11.0962 17.6284C11.0962 17.3293 10.8624 17.0868 10.5741 17.0868Z" fill="#252525"/>
<path d="M24.6665 17.5744C23.5123 15.5004 20.9603 14.7906 18.9608 15.9883L16.84 17.2586V12.5546C16.84 11.9731 16.6546 11.396 16.3179 10.9296L13.7073 7.31844V5.78073C14.315 5.55712 14.7516 4.95505 14.7516 4.24882V1.7571C14.7515 0.861056 14.0488 0.132073 13.1851 0.132073H3.78694C2.92326 0.132073 2.22056 0.861056 2.22056 1.7571V4.24888C2.22056 4.955 2.65712 5.55717 3.2648 5.78079V7.3185L0.654011 10.9298C0.317435 11.396 0.132073 11.9731 0.132073 12.5546V23.0454C0.132073 24.5389 1.3032 25.7538 2.74265 25.7538H11.1337C12.3044 27.7897 14.8287 28.4711 16.8075 27.2857L23.1378 23.4939C25.1196 22.3066 25.8265 19.6597 24.6665 17.5744ZM3.2648 1.7571C3.2648 1.4584 3.49903 1.21539 3.78689 1.21539H13.1851C13.473 1.21539 13.7072 1.4584 13.7072 1.7571V4.24888C13.7072 4.54758 13.473 4.79054 13.1851 4.79054H3.78694C3.49903 4.79054 3.26485 4.54752 3.26485 4.24888L3.2648 1.7571ZM1.48965 11.5795L4.20461 7.82402C4.27238 7.73031 4.30904 7.61622 4.30904 7.49899V5.87396H12.663V6.95734H7.96391C7.67558 6.95734 7.44176 7.19991 7.44176 7.49905C7.44176 7.79818 7.67558 8.04076 7.96391 8.04076H12.924L15.4822 11.5793C15.6494 11.8109 15.7532 12.088 15.7846 12.3743H1.18744C1.21876 12.088 1.32262 11.8109 1.48965 11.5795ZM2.7427 24.6704C1.87902 24.6704 1.17637 23.9415 1.17637 23.0454V22.4983H10.6625C10.4969 23.2007 10.498 23.9508 10.6876 24.6705L2.7427 24.6704ZM11.072 21.4203H1.17631V13.4575H15.7957V17.884L12.6305 19.7801C11.9705 20.1756 11.4371 20.7386 11.072 21.4203ZM16.2855 26.3475C14.7871 27.2451 12.8723 26.7143 12.0065 25.1586C11.1366 23.588 11.6638 21.6105 13.1527 20.7183L15.9868 19.0206L19.1195 24.6499L16.2855 26.3475ZM22.6157 22.5557L20.0239 24.1082L16.8911 18.4789L19.4829 16.9265C20.9823 16.0285 22.8964 16.5603 23.7622 18.116C24.6318 19.6795 24.103 21.6646 22.6157 22.5557Z" fill="#252525"/>
<path fill-rule="evenodd" clip-rule="evenodd" d="M24.782 17.5102C25.9759 19.6564 25.25 22.3824 23.2057 23.6072L23.1378 23.4939C25.1196 22.3066 25.8265 19.6597 24.6665 17.5744C23.5123 15.5004 20.9603 14.7906 18.9608 15.9883L16.84 17.2586V12.5546C16.84 11.9731 16.6546 11.396 16.3179 10.9296L13.7073 7.31844V5.78073C14.315 5.55712 14.7516 4.95505 14.7516 4.24882V1.7571C14.7515 0.861056 14.0488 0.132073 13.1851 0.132073H3.78694C2.92326 0.132073 2.22056 0.861056 2.22056 1.7571V4.24888C2.22056 4.955 2.65712 5.55717 3.2648 5.78079V7.3185L0.654011 10.9298C0.317435 11.396 0.132073 11.9731 0.132073 12.5546V23.0454C0.132073 24.5389 1.3032 25.7538 2.74265 25.7538H11.1337C12.3044 27.7897 14.8287 28.4711 16.8075 27.2857L23.1378 23.4939L23.2057 23.6072L16.8754 27.399C14.853 28.6106 12.2807 27.9324 11.058 25.8859H2.74265C1.22572 25.8859 0 24.6072 0 23.0454V12.5546C0 11.9456 0.193909 11.3415 0.546929 10.8525L3.13272 7.27576V5.87013C2.51836 5.60393 2.08848 4.97616 2.08848 4.24888V1.75711C2.08848 0.792731 2.84579 0 3.78694 0H13.1851C14.1263 0 14.8835 0.792736 14.8836 1.75711V4.24883C14.8836 4.97622 14.4538 5.60388 13.8394 5.87007V7.2757L16.4249 10.8522C16.7781 11.3414 16.9721 11.9456 16.9721 12.5546V17.0255L18.893 15.875C20.9585 14.6377 23.5927 15.3731 24.782 17.5102ZM12.6305 19.7801L15.7957 17.884V13.4575H1.17631V21.4203H11.072C11.4371 20.7386 11.9705 20.1756 12.6305 19.7801ZM10.9937 21.2882C11.3686 20.6171 11.9045 20.0612 12.5626 19.6668L15.6636 17.8092V13.5896H1.30839V21.2882H10.9937ZM22.6157 22.5557C24.103 21.6646 24.6318 19.6795 23.7622 18.116C22.8964 16.5603 20.9823 16.0285 19.4829 16.9265L16.8911 18.4789L20.0239 24.1082L22.6157 22.5557ZM20.073 23.9248L22.5478 22.4424C23.9726 21.5888 24.4825 19.6828 23.6468 18.1802C22.8161 16.6876 20.9842 16.1813 19.5508 17.0398L17.0687 18.5264L20.073 23.9248ZM16.2176 26.2342L18.9419 24.6023L15.9377 19.204L13.2206 20.8316C11.7943 21.6863 11.2857 23.5847 12.1221 25.0946C12.9528 26.587 14.7853 27.0923 16.2176 26.2342ZM19.1195 24.6499L16.2855 26.3475C14.7871 27.2451 12.8723 26.7143 12.0065 25.1586C11.1366 23.588 11.6638 21.6105 13.1527 20.7183L15.9868 19.0206L19.1195 24.6499ZM5.22076 7.49901C5.22076 7.13166 5.50927 6.82522 5.87498 6.82522C6.24069 6.82522 6.5292 7.13166 6.5292 7.49901C6.5292 7.86636 6.24069 8.1728 5.87498 8.1728C5.50927 8.1728 5.22076 7.86636 5.22076 7.49901ZM9.1398 16.9547H10.5741C10.9399 16.9547 11.2283 17.261 11.2283 17.6284C11.2283 17.9959 10.9399 18.3022 10.5741 18.3022H9.1398V19.7952C9.1398 20.1627 8.85133 20.469 8.48558 20.469C8.11981 20.469 7.83141 20.1626 7.83141 19.7952V18.3022H6.39715C6.03133 18.3022 5.74293 17.9958 5.74293 17.6284C5.74293 17.261 6.03135 16.9547 6.39715 16.9547H7.83141V15.4618C7.83141 15.0943 8.11975 14.788 8.48558 14.788C8.85139 14.788 9.1398 15.0943 9.1398 15.4618V16.9547ZM3.78689 1.34747C3.57652 1.34747 3.39687 1.52672 3.39687 1.75711L3.39693 4.24888C3.39693 4.47921 3.57652 4.65846 3.78694 4.65846H13.1851C13.3955 4.65846 13.5751 4.47924 13.5751 4.24888V1.75711C13.5751 1.52673 13.3955 1.34747 13.1851 1.34747H3.78689ZM1.59674 11.6568L4.31163 7.90142ZM4.31163 7.90142C4.39593 7.78486 4.44111 7.64361 4.44111 7.499V6.00604H12.5309V6.82526H7.96391C7.5981 6.82526 7.30969 7.13159 7.30969 7.49905C7.30969 7.86651 7.5981 8.17284 7.96391 8.17284H12.8566L15.3751 11.6567C15.4999 11.8295 15.5866 12.0307 15.6303 12.2422H1.34178C1.38535 12.0307 1.47213 11.8294 1.59674 11.6568M1.18744 12.3743C1.19228 12.33 1.19887 12.2859 1.20715 12.2422C1.25241 12.0033 1.34846 11.7751 1.48965 11.5795L4.20461 7.82402C4.27238 7.73031 4.30904 7.61622 4.30904 7.49899V5.87396H12.663V6.95734H7.96391C7.67558 6.95734 7.44176 7.19991 7.44176 7.49905C7.44176 7.79818 7.67558 8.04076 7.96391 8.04076H12.924L15.4822 11.5793C15.6235 11.7751 15.7196 12.0034 15.7649 12.2422C15.7732 12.2859 15.7798 12.33 15.7846 12.3743H1.18744ZM1.30844 23.0454C1.30844 23.8731 1.9565 24.5384 2.7427 24.5384L10.5195 24.5384C10.3778 23.9039 10.3755 23.2514 10.4987 22.6304H1.30844V23.0454ZM10.6625 22.4983C10.6521 22.5422 10.6424 22.5862 10.6334 22.6304C10.5066 23.251 10.5089 23.9046 10.655 24.5384C10.6651 24.5825 10.676 24.6266 10.6876 24.6705L2.7427 24.6704C1.87902 24.6704 1.17637 23.9415 1.17637 23.0454V22.4983H10.6625ZM3.78689 1.21539C3.49903 1.21539 3.2648 1.4584 3.2648 1.7571L3.26485 4.24888C3.26485 4.54752 3.49903 4.79054 3.78694 4.79054H13.1851C13.473 4.79054 13.7072 4.54758 13.7072 4.24888V1.7571C13.7072 1.4584 13.473 1.21539 13.1851 1.21539H3.78689ZM5.87498 6.95729C5.58675 6.95729 5.35283 7.19998 5.35283 7.49901C5.35283 7.79803 5.58675 8.04072 5.87498 8.04072C6.1632 8.04072 6.39712 7.79803 6.39712 7.49901C6.39712 7.19998 6.1632 6.95729 5.87498 6.95729ZM9.00772 17.0868V15.4618C9.00772 15.1626 8.7739 14.92 8.48557 14.92C8.19725 14.92 7.96348 15.1626 7.96348 15.4618V17.0868H6.39715C6.10882 17.0868 5.875 17.3294 5.875 17.6284C5.875 17.9275 6.10882 18.1702 6.39715 18.1702H7.96348V19.7952C7.96348 20.0943 8.1973 20.3369 8.48557 20.3369C8.77385 20.3369 9.00772 20.0943 9.00772 19.7952V18.1702H10.5741C10.8624 18.1702 11.0962 17.9276 11.0962 17.6284C11.0962 17.3293 10.8624 17.0868 10.5741 17.0868H9.00772Z" fill="#252525"/>
</svg>
