<svg width="27" height="28" viewBox="0 0 27 28" fill="none" xmlns="http://www.w3.org/2000/svg">
<path d="M16.9657 15.685C17.1016 15.685 17.2348 15.6269 17.3311 15.526C17.4277 15.4251 17.4826 15.2849 17.4826 15.1422C17.4826 14.9995 17.4277 14.8596 17.3311 14.7586C17.2348 14.6577 17.1022 14.5996 16.9657 14.5996C16.8298 14.5996 16.6963 14.6577 16.6002 14.7586C16.5041 14.8596 16.4488 14.9995 16.4488 15.1422C16.4488 15.2849 16.5041 15.4251 16.6002 15.526C16.6963 15.6269 16.8298 15.685 16.9657 15.685Z" fill="#252525"/>
<path d="M26.3201 18.454L22.2113 12.6534V7.95949C22.2113 6.91754 21.7071 5.99709 20.9416 5.45258C21.5914 4.93797 22.0122 4.12099 22.0122 3.20266V2.92256C22.0122 1.3696 20.809 0.10586 19.3302 0.10586C17.8512 0.10586 16.648 1.3696 16.648 2.92256V3.20266C16.648 4.12099 17.0688 4.93797 17.7185 5.45258C16.9531 5.99688 16.4489 6.91754 16.4489 7.95949V8.62529C16.4489 8.62677 16.4487 8.62805 16.4487 8.62953V10.2942L13.285 11.4973C12.4848 11.8016 12.0681 12.7301 12.3515 13.5713H12.0444C11.8236 13.5713 11.6269 13.7188 11.5554 13.9383L11.0048 15.6282H7.4964V9.49528C7.4964 9.19567 7.26501 8.95267 6.97951 8.95267C3.18944 8.95267 0.10586 12.1907 0.10586 16.171C0.10586 19.5959 2.38887 22.4711 5.44055 23.2069L4.61574 24.0732C4.33205 23.9032 4.00415 23.8056 3.65464 23.8056C2.58129 23.8056 1.70802 24.7225 1.70802 25.8499C1.70802 26.9771 2.58129 27.8941 3.65464 27.8941C4.7282 27.8941 5.60147 26.9771 5.60147 25.8499C5.60147 25.4831 5.50839 25.1387 5.34666 24.8406L6.73338 23.3843C6.81515 23.3873 6.89713 23.3894 6.97951 23.3894C7.06209 23.3894 7.14407 23.3873 7.22584 23.3843L8.61256 24.8406C8.45063 25.1387 8.35775 25.4831 8.35775 25.8499C8.35775 26.9771 9.23102 27.8941 10.3044 27.8941C11.3779 27.8941 12.2512 26.9771 12.2512 25.8499C12.2512 24.7225 11.3779 23.8056 10.3044 23.8056C9.95507 23.8056 9.62716 23.9032 9.34348 24.0732L8.51867 23.2069C11.5704 22.4711 13.8534 19.5959 13.8534 16.171C13.8534 15.8712 13.622 15.6282 13.3365 15.6282H12.0973L12.4139 14.6567H13.8211C13.838 14.6567 13.8546 14.6558 13.8711 14.6541C14.031 14.6478 14.1889 14.6168 14.341 14.5591L18.5272 12.9672C19.1388 12.7346 19.5497 12.1194 19.5497 11.4363V8.62953C19.5497 8.32971 19.3183 8.08672 19.033 8.08672C18.7475 8.08672 18.5161 8.32971 18.5161 8.62953V11.4363C18.5161 11.6638 18.3792 11.869 18.1753 11.9464L13.989 13.5384C13.9319 13.5602 13.8727 13.5713 13.8132 13.5713C13.5963 13.5713 13.4009 13.4273 13.327 13.2129C13.2301 12.9315 13.3692 12.6199 13.6371 12.5179L17.1417 11.185C17.3462 11.1072 17.4825 10.9032 17.4825 10.6748V9.49952C17.4825 9.49803 17.4827 9.49676 17.4827 9.49528V7.95949C17.4827 6.88956 18.3115 6.01914 19.3302 6.01914C20.3488 6.01914 21.1777 6.88956 21.1777 7.95949V12.8332C21.1777 12.9498 21.2136 13.0634 21.2798 13.1572L25.4909 19.1018C25.5464 19.1805 25.5404 19.2608 25.5317 19.302C25.523 19.3429 25.4963 19.4188 25.4144 19.4653L25.1325 19.6256C22.7978 20.9531 20.1602 21.6547 17.5053 21.6547H17.4827V17.3135C17.4827 17.0139 17.2513 16.7707 16.9658 16.7707C16.6805 16.7707 16.4491 17.0139 16.4491 17.3135V22.1976C16.4491 22.4972 16.6805 22.7404 16.9658 22.7404H17.5053C17.5263 22.7404 17.5473 22.7399 17.5683 22.7397V26.1756C17.5683 27.1232 18.3027 27.8941 19.205 27.8941C20.1075 27.8941 20.8417 27.1232 20.8417 26.1756V22.392C22.5089 22.0421 24.1254 21.4325 25.6248 20.5801L25.9066 20.4198C26.2303 20.2358 26.4615 19.9137 26.541 19.5363C26.6204 19.1586 26.5398 18.7643 26.3201 18.454ZM3.65464 26.8087C3.15128 26.8087 2.7416 26.3785 2.7416 25.8499C2.7416 25.3211 3.15128 24.8911 3.65464 24.8911C4.15821 24.8911 4.56768 25.3211 4.56768 25.8499C4.56768 26.3785 4.15821 26.8087 3.65464 26.8087ZM11.2174 25.8499C11.2174 26.3785 10.8079 26.8087 10.3044 26.8087C9.80101 26.8087 9.39133 26.3785 9.39133 25.8499C9.39133 25.3211 9.80101 24.8911 10.3044 24.8911C10.8079 24.8911 11.2174 25.3211 11.2174 25.8499ZM6.46282 10.0618V15.6282H1.16206C1.4096 12.6786 3.65404 10.3218 6.46282 10.0618ZM6.97951 22.304C3.93348 22.304 1.42454 19.8423 1.16206 16.7136H2.66892C2.82318 18.0927 3.56116 19.3168 4.70943 20.0577C4.79382 20.1122 4.88731 20.138 4.97958 20.138C5.15323 20.138 5.32283 20.0462 5.42035 19.8794C5.56977 19.6241 5.49385 19.2899 5.25055 19.133C4.41141 18.5912 3.85958 17.7115 3.71178 16.7136H11.3705C11.3717 16.7136 11.3729 16.7139 11.3743 16.7139C11.3755 16.7139 11.3767 16.7136 11.3781 16.7136H12.797C12.5345 19.8423 10.0257 22.304 6.97951 22.304ZM17.6816 3.20266V2.92256C17.6816 1.96797 18.421 1.19149 19.33 1.19149C20.239 1.19149 20.9786 1.96818 20.9786 2.92256V3.20266C20.9786 4.15704 20.239 4.93373 19.33 4.93373C18.421 4.93373 17.6816 4.15704 17.6816 3.20266ZM19.8077 26.1756C19.8077 26.5248 19.5374 26.8087 19.2048 26.8087C18.8723 26.8087 18.6019 26.5248 18.6019 26.1756V22.7024C19.0053 22.6751 19.4075 22.6322 19.8077 22.5746V26.1756Z" fill="#252525"/>
<path d="M8.80944 8.07914C9.52563 8.77505 10.2321 9.28161 10.2618 9.30281C10.3496 9.36557 10.451 9.39674 10.5523 9.39674C10.6539 9.39674 10.7553 9.36557 10.8431 9.30281C10.8728 9.28161 11.5793 8.77505 12.2955 8.07914C13.344 7.06072 13.8536 6.19497 13.8536 5.43248C13.8536 4.11148 12.8982 3.03666 11.724 3.03666C11.3053 3.03666 10.8974 3.17702 10.5523 3.43189C10.2075 3.17702 9.79962 3.03666 9.38086 3.03666C8.20674 3.03666 7.25129 4.11148 7.25129 5.43248C7.25129 6.19497 7.76091 7.06072 8.80944 8.07914ZM9.38086 4.12229C9.67625 4.12229 9.95348 4.26139 10.1614 4.51414C10.2596 4.6333 10.4023 4.70179 10.5523 4.70179C10.7024 4.70179 10.8451 4.6333 10.9433 4.51414C11.1514 4.26139 11.4286 4.12229 11.7238 4.12229C12.3282 4.12229 12.8198 4.70985 12.8198 5.43248C12.8198 6.15129 11.5766 7.39871 10.5521 8.18919C9.52785 7.39977 8.28488 6.15298 8.28488 5.43248C8.28488 4.70985 8.77653 4.12229 9.38086 4.12229Z" fill="#252525"/>
<path d="M6.97945 19.645C6.96471 19.645 6.95017 19.6448 6.93543 19.6446C6.64791 19.6387 6.41531 19.8795 6.41107 20.1794C6.40683 20.479 6.63479 20.7256 6.92029 20.73C6.93988 20.7305 6.95966 20.7305 6.97945 20.7305C7.26496 20.7305 7.49635 20.4875 7.49635 20.1876C7.49635 19.888 7.26496 19.645 6.97945 19.645Z" fill="#252525"/>
<path fill-rule="evenodd" clip-rule="evenodd" d="M14.341 14.5591C14.1889 14.6168 14.031 14.6478 13.8711 14.6541C13.8546 14.6558 13.838 14.6567 13.8211 14.6567H12.4139L12.0973 15.6282H13.3365C13.622 15.6282 13.8534 15.8712 13.8534 16.171C13.8534 19.5516 11.629 22.3966 8.63665 23.1772C8.59745 23.1875 8.55813 23.1973 8.51867 23.2069L9.34348 24.0732C9.62716 23.9032 9.95507 23.8056 10.3044 23.8056C11.3779 23.8056 12.2512 24.7225 12.2512 25.8499C12.2512 26.9771 11.3779 27.8941 10.3044 27.8941C9.23102 27.8941 8.35775 26.9771 8.35775 25.8499C8.35775 25.4831 8.45063 25.1387 8.61256 24.8406L7.22584 23.3843C7.14407 23.3873 7.06209 23.3894 6.97951 23.3894C6.89713 23.3894 6.81515 23.3873 6.73338 23.3843L5.34666 24.8406C5.50839 25.1387 5.60147 25.4831 5.60147 25.8499C5.60147 26.9771 4.7282 27.8941 3.65464 27.8941C2.58129 27.8941 1.70802 26.9771 1.70802 25.8499C1.70802 24.7225 2.58129 23.8056 3.65464 23.8056C4.00415 23.8056 4.33205 23.9032 4.61574 24.0732L5.44055 23.2069C5.40109 23.1973 5.36177 23.1875 5.32257 23.1772C2.33021 22.3966 0.10586 19.5516 0.10586 16.171C0.10586 12.1907 3.18944 8.95267 6.97951 8.95267C7.26501 8.95267 7.4964 9.19567 7.4964 9.49528V15.6282H11.0048L11.5554 13.9383C11.6269 13.7188 11.8236 13.5713 12.0444 13.5713H12.3515C12.3397 13.5361 12.3291 13.5008 12.3197 13.4654C12.1036 12.6536 12.5182 11.7889 13.285 11.4973L16.4487 10.2942V8.62953L16.4489 8.62529V7.95949C16.4489 6.95803 16.9147 6.06861 17.6305 5.51772C17.6594 5.49545 17.6888 5.47373 17.7185 5.45258C17.6899 5.42994 17.6618 5.4067 17.6341 5.3829C17.0326 4.86586 16.648 4.08058 16.648 3.20266V2.92256C16.648 1.3696 17.8512 0.10586 19.3302 0.10586C20.809 0.10586 22.0122 1.3696 22.0122 2.92256V3.20266C22.0122 4.08058 21.6276 4.86586 21.0261 5.3829C20.9984 5.4067 20.9702 5.42994 20.9416 5.45258C20.9714 5.47374 21.0007 5.49546 21.0297 5.51773C21.7455 6.06879 22.2113 6.95802 22.2113 7.95949V12.6534L26.3201 18.454C26.5398 18.7643 26.6204 19.1586 26.541 19.5363C26.4615 19.9137 26.2303 20.2358 25.9066 20.4198L25.6248 20.5801C24.1254 21.4325 22.5089 22.0421 20.8417 22.392V26.1756C20.8417 27.1232 20.1075 27.8941 19.205 27.8941C18.3027 27.8941 17.5683 27.1232 17.5683 26.1756V22.7397L17.5436 22.74L17.5053 22.7404H16.9658C16.6805 22.7404 16.4491 22.4972 16.4491 22.1976V17.3135C16.4491 17.0139 16.6805 16.7707 16.9658 16.7707C17.2513 16.7707 17.4827 17.0139 17.4827 17.3135V21.6547H17.5053C17.5331 21.6547 17.5608 21.6547 17.5886 21.6545C20.2154 21.64 22.8222 20.9392 25.1325 19.6256L25.4144 19.4653C25.4963 19.4188 25.523 19.3429 25.5317 19.302C25.5404 19.2608 25.5464 19.1805 25.4909 19.1018L21.2798 13.1572C21.2136 13.0634 21.1777 12.9498 21.1777 12.8332V7.95949C21.1777 6.88956 20.3488 6.01914 19.3302 6.01914C18.3115 6.01914 17.4827 6.88956 17.4827 7.95949V9.49528L17.4825 9.49952V10.6748C17.4825 10.9032 17.3462 11.1072 17.1417 11.185L13.6371 12.5179C13.3692 12.6199 13.2301 12.9315 13.327 13.2129C13.4009 13.4273 13.5963 13.5713 13.8132 13.5713C13.8727 13.5713 13.9319 13.5602 13.989 13.5384L18.1753 11.9464C18.3792 11.869 18.5161 11.6638 18.5161 11.4363V8.62953C18.5161 8.32971 18.7475 8.08672 19.033 8.08672C19.3183 8.08672 19.5497 8.32971 19.5497 8.62953V11.4363C19.5497 12.1194 19.1388 12.7346 18.5272 12.9672L14.341 14.5591ZM13.4271 13.1784C13.3476 12.9477 13.4635 12.6972 13.6747 12.6168C13.6747 12.6168 13.6748 12.6168 13.6747 12.6168L17.1793 11.2839C17.4272 11.1896 17.5884 10.9446 17.5884 10.6748V9.50237C17.5885 9.50056 17.5886 9.49803 17.5886 9.49528V7.95949C17.5886 6.94307 18.3748 6.125 19.3302 6.125C20.2855 6.125 21.0718 6.94307 21.0718 7.95949V12.8332C21.0718 12.9714 21.1144 13.1064 21.1934 13.2182L25.4044 19.1629C25.4044 19.1628 25.4044 19.1629 25.4044 19.1629C25.4364 19.2082 25.4335 19.2545 25.4281 19.28C25.4225 19.3063 25.4068 19.3478 25.3622 19.3731L25.0802 19.5335C22.7856 20.8383 20.1968 21.5341 17.5886 21.5487V17.3135C17.5886 16.9604 17.3146 16.6648 16.9658 16.6648C16.6172 16.6648 16.3433 16.9604 16.3433 17.3135V22.1976C16.3433 22.5506 16.6172 22.8462 16.9658 22.8462H17.4625V26.1756C17.4625 27.1767 18.2394 28 19.205 28C20.1708 28 20.9476 27.1767 20.9476 26.1756V22.4777C22.5957 22.1229 24.1934 21.5156 25.6771 20.6722L25.959 20.5119C26.31 20.3122 26.5591 19.964 26.6446 19.5581C26.7299 19.1521 26.6435 18.7275 26.4065 18.3929L22.3171 12.6197V7.95949C22.3171 6.93344 21.8438 6.01998 21.1125 5.44805C21.7271 4.91104 22.118 4.1033 22.118 3.20266V2.92256C22.118 1.31609 20.8723 0 19.3302 0C17.7879 0 16.5421 1.31608 16.5421 2.92256V3.20266C16.5421 4.10329 16.933 4.91103 17.5476 5.44804C16.8164 6.01981 16.3431 6.93346 16.3431 7.95949V8.62243C16.343 8.62424 16.3429 8.62678 16.3429 8.62953V10.2212L13.2474 11.3984C12.4352 11.7072 11.9976 12.6125 12.2103 13.4654H12.0444C11.775 13.4654 11.5396 13.6451 11.4548 13.9055M13.4271 13.1784C13.4871 13.3527 13.6442 13.4654 13.8132 13.4654C13.8595 13.4654 13.9059 13.4568 13.9513 13.4395L18.1376 11.8475C18.298 11.7866 18.4102 11.6225 18.4102 11.4363V8.62953C18.4102 8.27619 18.6842 7.98086 19.033 7.98086C19.3816 7.98086 19.6555 8.27621 19.6555 8.62953V11.4363C19.6555 12.1608 19.2198 12.817 18.5648 13.0661L14.3786 14.6581C14.2165 14.7196 14.0483 14.7527 13.8785 14.7598C13.8595 14.7616 13.8404 14.7625 13.8211 14.7625H12.4908L12.2432 15.5224H13.3365C13.6853 15.5224 13.9592 15.8177 13.9592 16.171C13.9592 19.5765 11.7321 22.4506 8.71988 23.2647L9.36299 23.9402C9.64492 23.7869 9.96504 23.6998 10.3044 23.6998C11.4412 23.6998 12.3571 24.669 12.3571 25.8499C12.3571 27.0306 11.4412 28 10.3044 28C9.16773 28 8.25189 27.0306 8.25189 25.8499C8.25189 25.4929 8.33577 25.1558 8.48375 24.8588L7.18195 23.4917C7.11508 23.4939 7.04761 23.4953 6.97951 23.4953C6.91157 23.4953 6.84413 23.4939 6.77727 23.4917L5.47545 24.8589C5.62326 25.1558 5.70733 25.4929 5.70733 25.8499C5.70733 27.0306 4.79148 28 3.65464 28C2.518 28 1.60216 27.0306 1.60216 25.8499C1.60216 24.669 2.51801 23.6998 3.65464 23.6998C3.99415 23.6998 4.3143 23.7869 4.59623 23.9402L5.23934 23.2647C2.22711 22.4506 0 19.5765 0 16.171C0 12.1372 3.12616 8.84681 6.97951 8.84681C7.32827 8.84681 7.60226 9.14212 7.60226 9.49528V15.5224H10.928L11.4548 13.9055M10.0797 4.5814C9.8894 4.35012 9.64095 4.22815 9.38086 4.22815C8.8519 4.22815 8.39074 4.74984 8.39074 5.43248C8.39074 5.58515 8.45776 5.77881 8.58687 6.0034C8.71472 6.22579 8.8973 6.46805 9.114 6.7152C9.52896 7.18847 10.0615 7.67119 10.5521 8.05512C11.0428 7.67068 11.5755 7.18754 11.9906 6.71416C12.2073 6.46697 12.3899 6.22474 12.5178 6.0025C12.647 5.77804 12.714 5.58468 12.714 5.43248C12.714 4.74984 12.2528 4.22815 11.7238 4.22815C11.464 4.22815 11.2155 4.3501 11.025 4.58143C11.025 4.58143 11.025 4.58143 11.025 4.58143L10.9433 4.51414C11.1514 4.26139 11.4286 4.12229 11.7238 4.12229C12.3282 4.12229 12.8198 4.70985 12.8198 5.43248C12.8198 6.15129 11.5766 7.39871 10.5521 8.18919C9.52785 7.39977 8.28488 6.15298 8.28488 5.43248C8.28488 4.70985 8.77653 4.12229 9.38086 4.12229C9.67625 4.12229 9.95348 4.26139 10.1614 4.51414C10.2596 4.6333 10.4023 4.70179 10.5523 4.70179C10.7024 4.70179 10.8451 4.6333 10.9433 4.51414M17.4077 15.5992C17.292 15.7203 17.1314 15.7909 16.9657 15.7909C16.8 15.7909 16.6391 15.7203 16.5236 15.599C16.4082 15.4779 16.3429 15.3114 16.3429 15.1422C16.3429 14.973 16.4083 14.8067 16.5236 14.6856C16.6391 14.5643 16.8 14.4937 16.9657 14.4937C17.1321 14.4937 17.2922 14.5644 17.4077 14.6855C17.4078 14.6856 17.4077 14.6855 17.4077 14.6855C17.5237 14.8068 17.5884 14.9732 17.5884 15.1422C17.5884 15.3112 17.5236 15.4778 17.4077 15.5992L17.3311 15.526ZM2.84746 25.8499C2.84746 26.325 3.21457 26.7029 3.65464 26.7029C4.09491 26.7029 4.46182 26.325 4.46182 25.8499C4.46182 25.3746 4.09492 24.9969 3.65464 24.9969C3.21455 24.9969 2.84746 25.3746 2.84746 25.8499ZM10.3044 26.7029C10.7446 26.7029 11.1116 26.325 11.1116 25.8499C11.1116 25.3746 10.7447 24.9969 10.3044 24.9969C9.86428 24.9969 9.49719 25.3746 9.49719 25.8499C9.49719 26.325 9.8643 26.7029 10.3044 26.7029ZM6.46282 10.0618C6.42744 10.0651 6.39215 10.0687 6.35696 10.0727C3.63133 10.3775 1.45979 12.6593 1.17182 15.5224C1.16828 15.5576 1.16502 15.5929 1.16206 15.6282H6.46282V10.0618ZM6.35696 10.1792V15.5224H1.27822C1.56539 12.7146 3.69315 10.483 6.35696 10.1792ZM1.27822 16.8195C1.58737 19.8432 4.03045 22.1981 6.97951 22.1981C9.92876 22.1981 12.3716 19.8432 12.6808 16.8195H11.3807L11.3743 16.8197C11.3722 16.8197 11.3702 16.8197 11.3686 16.8196C11.368 16.8196 11.3676 16.8195 11.3671 16.8195H3.83664C4.00544 17.738 4.52949 18.5415 5.30796 19.0441C5.60059 19.2328 5.68869 19.6304 5.51175 19.9328C5.51174 19.9328 5.51176 19.9328 5.51175 19.9328L5.42035 19.8794M5.25055 19.133C4.44121 18.6105 3.89914 17.7736 3.72906 16.8195C3.72279 16.7844 3.71703 16.7491 3.71178 16.7136H11.3705L11.3743 16.7139L11.3781 16.7136H12.797C12.794 16.749 12.7907 16.7843 12.7872 16.8195C12.4777 19.8976 9.9913 22.304 6.97951 22.304C3.96792 22.304 1.48134 19.8976 1.17182 16.8195C1.16828 16.7843 1.16502 16.749 1.16206 16.7136H2.66892C2.82318 18.0927 3.56116 19.3168 4.70943 20.0577M4.652 20.1466C3.50221 19.4048 2.75524 18.1905 2.57515 16.8195H1.27822M11.385 16.8192C11.3855 16.8192 11.3852 16.8192 11.385 16.8192ZM17.7874 2.92256V3.20266C17.7874 4.10352 18.4843 4.82787 19.33 4.82787C20.1757 4.82787 20.8727 4.1035 20.8727 3.20266V2.92256C20.8727 2.02171 20.1757 1.29735 19.33 1.29735C18.4843 1.29735 17.7874 2.02149 17.7874 2.92256ZM19.2048 26.7029C19.4741 26.7029 19.7018 26.4713 19.7018 26.1756V22.6963C19.3717 22.7414 19.0402 22.7764 18.7078 22.801V26.1756C18.7078 26.4713 18.9355 26.7029 19.2048 26.7029ZM18.6019 22.7024V26.1756C18.6019 26.5248 18.8723 26.8087 19.2048 26.8087C19.5374 26.8087 19.8077 26.5248 19.8077 26.1756V22.5746C19.7724 22.5796 19.7372 22.5846 19.7018 22.5895C19.3366 22.6397 18.9698 22.6775 18.6019 22.7024ZM10.2003 9.38895C10.1689 9.36652 9.45744 8.85639 8.73567 8.15506C7.68337 7.13297 7.14543 6.2406 7.14543 5.43248C7.14543 4.06508 8.13689 2.9308 9.38086 2.9308C9.79818 2.9308 10.2039 3.06269 10.5524 3.30194C10.9009 3.06269 11.3067 2.9308 11.724 2.9308C12.968 2.9308 13.9595 4.06508 13.9595 5.43248C13.9595 6.2406 13.4215 7.13297 12.3692 8.15506C11.6475 8.85639 10.936 9.36652 10.9046 9.38895C10.9046 9.38895 10.9046 9.38895 10.9046 9.38895C10.7987 9.46466 10.6758 9.5026 10.5523 9.5026C10.4291 9.5026 10.3062 9.46464 10.2003 9.38895ZM10.2618 9.30281C10.2321 9.28161 9.52563 8.77505 8.80944 8.07914C7.76091 7.06072 7.25129 6.19497 7.25129 5.43248C7.25129 4.11148 8.20674 3.03666 9.38086 3.03666C9.79962 3.03666 10.2075 3.17702 10.5523 3.43189C10.8974 3.17702 11.3053 3.03666 11.724 3.03666C12.8982 3.03666 13.8536 4.11148 13.8536 5.43248C13.8536 6.19497 13.344 7.06072 12.2955 8.07914M10.2618 9.30281L10.2003 9.38895C10.2003 9.38895 10.2003 9.38895 10.2003 9.38895M10.2618 9.30281L10.2003 9.38895ZM6.93729 19.5388C6.95204 19.539 6.96571 19.5392 6.97945 19.5392C7.32822 19.5392 7.60221 19.8345 7.60221 20.1876C7.60221 20.541 7.32824 20.8363 6.97945 20.8363C6.9601 20.8363 6.93897 20.8363 6.91832 20.8359C6.91821 20.8359 6.91843 20.8359 6.91832 20.8359L6.92029 20.73C6.63479 20.7256 6.40683 20.479 6.41107 20.1794C6.41531 19.8795 6.64791 19.6387 6.93543 19.6446L6.95201 19.6448L6.97945 19.645C7.26496 19.645 7.49635 19.888 7.49635 20.1876C7.49635 20.4875 7.26496 20.7305 6.97945 20.7305C6.95966 20.7305 6.93988 20.7305 6.92029 20.73M2.7416 25.8499C2.7416 26.3785 3.15128 26.8087 3.65464 26.8087C4.15821 26.8087 4.56768 26.3785 4.56768 25.8499C4.56768 25.3211 4.15821 24.8911 3.65464 24.8911C3.15128 24.8911 2.7416 25.3211 2.7416 25.8499ZM10.3044 26.8087C10.8079 26.8087 11.2174 26.3785 11.2174 25.8499C11.2174 25.3211 10.8079 24.8911 10.3044 24.8911C9.80101 24.8911 9.39133 25.3211 9.39133 25.8499C9.39133 26.3785 9.80101 26.8087 10.3044 26.8087ZM17.6816 2.92256V3.20266C17.6816 4.15704 18.421 4.93373 19.33 4.93373C20.239 4.93373 20.9786 4.15704 20.9786 3.20266V2.92256C20.9786 1.96818 20.239 1.19149 19.33 1.19149C18.421 1.19149 17.6816 1.96797 17.6816 2.92256Z" fill="#252525"/>
</svg>
