<svg width="28" height="28" viewBox="0 0 28 28" fill="none" xmlns="http://www.w3.org/2000/svg">
<path d="M3.70833 27.05H11.2917C11.6183 27.05 11.8833 26.785 11.8833 26.4583C11.8833 26.1317 11.6183 25.8667 11.2917 25.8667H3.70833C2.84003 25.8667 2.13333 25.16 2.13333 24.2917V3.70833C2.13333 2.84003 2.84003 2.13333 3.70833 2.13333H16.7083C17.5766 2.13333 18.2833 2.84003 18.2833 3.70833V13.4583C18.2833 13.785 18.5484 14.05 18.875 14.05C19.2016 14.05 19.4667 13.785 19.4667 13.4583V3.70833C19.4667 2.1879 18.2299 0.95 16.7083 0.95H3.70833C2.18679 0.95 0.95 2.1879 0.95 3.70833V24.2917C0.95 25.8121 2.18679 27.05 3.70833 27.05Z" fill="#252525" stroke="#252525" stroke-width="0.1"/>
<path d="M4.2 5.875C4.2 6.79853 4.95147 7.55 5.875 7.55C6.79853 7.55 7.55 6.79853 7.55 5.875C7.55 4.95147 6.79853 4.2 5.875 4.2C4.95147 4.2 4.2 4.95147 4.2 5.875ZM5.38333 5.875C5.38333 5.60368 5.60463 5.38333 5.875 5.38333C6.14537 5.38333 6.36667 5.60368 6.36667 5.875C6.36667 6.14632 6.14537 6.36667 5.875 6.36667C5.60463 6.36667 5.38333 6.14632 5.38333 5.875Z" fill="#252525" stroke="#252525" stroke-width="0.1"/>
<path d="M4.2 11.2915C4.2 12.215 4.95147 12.9665 5.875 12.9665C6.79853 12.9665 7.55 12.215 7.55 11.2915C7.55 10.368 6.79853 9.6165 5.875 9.6165C4.95147 9.6165 4.2 10.368 4.2 11.2915ZM5.38333 11.2915C5.38333 11.0202 5.60463 10.7998 5.875 10.7998C6.14537 10.7998 6.36667 11.0202 6.36667 11.2915C6.36667 11.5628 6.14537 11.7832 5.875 11.7832C5.60463 11.7832 5.38333 11.5628 5.38333 11.2915Z" fill="#252525" stroke="#252525" stroke-width="0.1"/>
<path d="M4.2 16.7085C4.2 17.632 4.95147 18.3835 5.875 18.3835C6.79853 18.3835 7.55 17.632 7.55 16.7085C7.55 15.785 6.79853 15.0335 5.875 15.0335C4.95147 15.0335 4.2 15.785 4.2 16.7085ZM5.38333 16.7085C5.38333 16.4372 5.60463 16.2168 5.875 16.2168C6.14537 16.2168 6.36667 16.4372 6.36667 16.7085C6.36667 16.9798 6.14537 17.2002 5.875 17.2002C5.60463 17.2002 5.38333 16.9798 5.38333 16.7085Z" fill="#252525" stroke="#252525" stroke-width="0.1"/>
<path d="M4.2 22.125C4.2 23.0485 4.95147 23.8 5.875 23.8C6.79853 23.8 7.55 23.0485 7.55 22.125C7.55 21.2015 6.79853 20.45 5.875 20.45C4.95147 20.45 4.2 21.2015 4.2 22.125ZM5.38333 22.125C5.38333 21.8537 5.60463 21.6333 5.875 21.6333C6.14537 21.6333 6.36667 21.8537 6.36667 22.125C6.36667 22.3963 6.14537 22.6167 5.875 22.6167C5.60463 22.6167 5.38333 22.3963 5.38333 22.125Z" fill="#252525" stroke="#252525" stroke-width="0.1"/>
<path d="M12.8665 5.875C12.8665 6.79853 13.618 7.55 14.5415 7.55C15.465 7.55 16.2165 6.79853 16.2165 5.875C16.2165 4.95147 15.465 4.2 14.5415 4.2C13.618 4.2 12.8665 4.95147 12.8665 5.875ZM14.0498 5.875C14.0498 5.60368 14.2711 5.38333 14.5415 5.38333C14.8119 5.38333 15.0332 5.60368 15.0332 5.875C15.0332 6.14632 14.8119 6.36667 14.5415 6.36667C14.2711 6.36667 14.0498 6.14632 14.0498 5.875Z" fill="#252525" stroke="#252525" stroke-width="0.1"/>
<path d="M12.8665 11.2915C12.8665 12.215 13.618 12.9665 14.5415 12.9665C15.465 12.9665 16.2165 12.215 16.2165 11.2915C16.2165 10.368 15.465 9.6165 14.5415 9.6165C13.618 9.6165 12.8665 10.368 12.8665 11.2915ZM14.0498 11.2915C14.0498 11.0202 14.2711 10.7998 14.5415 10.7998C14.8119 10.7998 15.0332 11.0202 15.0332 11.2915C15.0332 11.5628 14.8119 11.7832 14.5415 11.7832C14.2711 11.7832 14.0498 11.5628 14.0498 11.2915Z" fill="#252525" stroke="#252525" stroke-width="0.1"/>
<path d="M9.6165 23.2083C9.6165 23.535 9.88156 23.8 10.2082 23.8C10.5348 23.8 10.7998 23.535 10.7998 23.2083V4.79167C10.7998 4.46505 10.5348 4.2 10.2082 4.2C9.88156 4.2 9.6165 4.46505 9.6165 4.79167V23.2083Z" fill="#252525" stroke="#252525" stroke-width="0.1"/>
<path d="M12.8665 23.2082C12.8665 24.2976 13.6588 25.259 14.9328 25.9451C16.2085 26.6321 17.9774 27.0498 19.9582 27.0498C21.9389 27.0498 23.7079 26.6321 24.9835 25.9451C26.2575 25.259 27.0498 24.2976 27.0498 23.2082V19.9582C27.0498 19.6316 26.7848 19.3665 26.4582 19.3665C26.1316 19.3665 25.8665 19.6316 25.8665 19.9582V23.2082C25.8665 23.5122 25.7213 23.8302 25.4422 24.1385C25.1633 24.4465 24.7534 24.7416 24.2319 24.9981C23.1892 25.511 21.7074 25.8665 19.9582 25.8665C18.2089 25.8665 16.7271 25.511 15.6844 24.9981C15.163 24.7416 14.7531 24.4465 14.4741 24.1385C14.1951 23.8302 14.0498 23.5122 14.0498 23.2082V19.9582C14.0498 19.6316 13.7848 19.3665 13.4582 19.3665C13.1316 19.3665 12.8665 19.6316 12.8665 19.9582V23.2082Z" fill="#252525" stroke="#252525" stroke-width="0.1"/>
<path d="M12.8665 19.9582C12.8665 21.0476 13.6588 22.009 14.9328 22.6951C16.2085 23.3821 17.9774 23.7998 19.9582 23.7998C21.9389 23.7998 23.7079 23.3821 24.9835 22.6951C26.2575 22.009 27.0498 21.0476 27.0498 19.9582C27.0498 18.8687 26.2575 17.9074 24.9835 17.2213C23.7079 16.5343 21.9389 16.1165 19.9582 16.1165C17.9774 16.1165 16.2085 16.5343 14.9328 17.2213C13.6588 17.9074 12.8665 18.8687 12.8665 19.9582ZM14.0498 19.9582C14.0498 19.6541 14.1951 19.3361 14.4741 19.0279C14.7531 18.7198 15.163 18.4248 15.6844 18.1683C16.7271 17.6553 18.2089 17.2998 19.9582 17.2998C21.7074 17.2998 23.1892 17.6553 24.2319 18.1683C24.7534 18.4248 25.1633 18.7198 25.4422 19.0279C25.7213 19.3361 25.8665 19.6541 25.8665 19.9582C25.8665 20.2622 25.7213 20.5802 25.4422 20.8885C25.1633 21.1965 24.7534 21.4916 24.2319 21.7481C23.1892 22.261 21.7074 22.6165 19.9582 22.6165C18.2089 22.6165 16.7271 22.261 15.6844 21.7481C15.163 21.4916 14.7531 21.1965 14.4741 20.8885C14.1951 20.5802 14.0498 20.2622 14.0498 19.9582Z" fill="#252525" stroke="#252525" stroke-width="0.1"/>
</svg>
