<svg width="24" height="28" viewBox="0 0 24 28" fill="none" xmlns="http://www.w3.org/2000/svg">
<mask id="path-1-outside-1_516_21726" maskUnits="userSpaceOnUse" x="0" y="0" width="24" height="28" fill="black">
<rect fill="white" width="24" height="28"/>
<path d="M23.3507 24.5131H22.903C22.9113 24.4817 22.9161 24.449 22.9161 24.415V11.7146C22.9161 10.9803 22.3187 10.3829 21.5844 10.3829H15.0851V8.38056V6.04427H16.0615C16.2733 6.04427 16.4448 5.87266 16.4448 5.66097C16.4448 5.44928 16.2733 5.27766 16.0615 5.27766H14.6979H13.6214V3.29157H15.4469C15.6586 3.29157 15.8302 3.11995 15.8302 2.90826V1.38331C15.8302 1.17162 15.6586 1 15.4469 1H9.04828C8.83659 1 8.66497 1.17162 8.66497 1.38331V2.90826C8.66497 3.11995 8.83659 3.29157 9.04828 3.29157H10.8735V5.27766H9.79691H8.43335C8.22167 5.27766 8.05005 5.44928 8.05005 5.66097C8.05005 5.87266 8.22167 6.04427 8.43335 6.04427H9.40987V8.38056V11.914H4.55403C4.01786 11.914 3.58165 12.3502 3.58165 12.8864V24.5131H2.80405C2.81233 24.4817 2.81718 24.449 2.81718 24.415V11.7146C2.81718 11.403 3.07068 11.1495 3.38228 11.1495H8.25995C8.47163 11.1495 8.64325 10.9779 8.64325 10.7662C8.64325 10.5545 8.47163 10.3829 8.25995 10.3829H3.38228C2.64797 10.3829 2.05057 10.9803 2.05057 11.7146V24.415C2.05057 24.449 2.05542 24.4817 2.0637 24.5131H1.38331C1.17162 24.5131 1 24.6847 1 24.8964V25.8309C1 26.4755 1.52447 27 2.16914 27H22.5648C23.2095 27 23.734 26.4755 23.734 25.8309V24.8964C23.734 24.6847 23.5623 24.5131 23.3507 24.5131ZM12.2475 13.2778C10.643 13.2778 10.1765 13.1488 10.1765 12.2941V8.76382H14.3185V12.2941C14.3185 13.0562 14.0467 13.2778 12.2475 13.2778ZM9.43159 1.76661H15.0635V2.52495H13.2381H11.2568H9.43159V1.76661ZM11.6402 3.29157H12.8548V5.27766H11.6402V3.29157ZM11.2568 6.04427H13.2381H14.3185V7.99725H10.1766V6.04427H11.2568ZM4.34832 12.8864C4.34832 12.7729 4.44062 12.6807 4.55408 12.6807H9.44069C9.53477 13.2461 9.84755 13.6359 10.3752 13.8411C10.7977 14.0055 11.3267 14.037 11.8642 14.043V16.9374C11.8642 17.1491 12.0357 17.3207 12.2475 17.3207C12.4592 17.3207 12.6308 17.1491 12.6308 16.9374V14.043C13.1683 14.037 13.6972 14.0055 14.1198 13.8411C14.6474 13.6359 14.9603 13.2461 15.0544 12.6807H20.4127C20.5261 12.6807 20.6184 12.773 20.6184 12.8864V18.1416C20.6184 18.3533 20.79 18.5249 21.0017 18.5249C21.2134 18.5249 21.385 18.3533 21.385 18.1416V12.8864C21.385 12.3502 20.9488 11.914 20.4127 11.914H15.0851V11.1495H21.5844C21.896 11.1495 22.1495 11.403 22.1495 11.7146V24.415C22.1495 24.449 22.1544 24.4817 22.1627 24.5131H21.385V19.6748C21.385 19.4632 21.2134 19.2915 21.0017 19.2915C20.79 19.2915 20.6184 19.4632 20.6184 19.6748V24.5131H15.5525H9.18147H4.34832V12.8864ZM1.76661 25.8309V25.2797H8.79816V26.2334H2.16914C1.94718 26.2334 1.76661 26.0528 1.76661 25.8309ZM9.56477 26.2334V25.2796H15.1692V26.2334H9.56477ZM22.9674 25.8309C22.9674 26.0528 22.7868 26.2334 22.5648 26.2334H15.9358V25.2796H22.9674V25.8309Z"/>
</mask>
<path d="M23.3507 24.5131H22.903C22.9113 24.4817 22.9161 24.449 22.9161 24.415V11.7146C22.9161 10.9803 22.3187 10.3829 21.5844 10.3829H15.0851V8.38056V6.04427H16.0615C16.2733 6.04427 16.4448 5.87266 16.4448 5.66097C16.4448 5.44928 16.2733 5.27766 16.0615 5.27766H14.6979H13.6214V3.29157H15.4469C15.6586 3.29157 15.8302 3.11995 15.8302 2.90826V1.38331C15.8302 1.17162 15.6586 1 15.4469 1H9.04828C8.83659 1 8.66497 1.17162 8.66497 1.38331V2.90826C8.66497 3.11995 8.83659 3.29157 9.04828 3.29157H10.8735V5.27766H9.79691H8.43335C8.22167 5.27766 8.05005 5.44928 8.05005 5.66097C8.05005 5.87266 8.22167 6.04427 8.43335 6.04427H9.40987V8.38056V11.914H4.55403C4.01786 11.914 3.58165 12.3502 3.58165 12.8864V24.5131H2.80405C2.81233 24.4817 2.81718 24.449 2.81718 24.415V11.7146C2.81718 11.403 3.07068 11.1495 3.38228 11.1495H8.25995C8.47163 11.1495 8.64325 10.9779 8.64325 10.7662C8.64325 10.5545 8.47163 10.3829 8.25995 10.3829H3.38228C2.64797 10.3829 2.05057 10.9803 2.05057 11.7146V24.415C2.05057 24.449 2.05542 24.4817 2.0637 24.5131H1.38331C1.17162 24.5131 1 24.6847 1 24.8964V25.8309C1 26.4755 1.52447 27 2.16914 27H22.5648C23.2095 27 23.734 26.4755 23.734 25.8309V24.8964C23.734 24.6847 23.5623 24.5131 23.3507 24.5131ZM12.2475 13.2778C10.643 13.2778 10.1765 13.1488 10.1765 12.2941V8.76382H14.3185V12.2941C14.3185 13.0562 14.0467 13.2778 12.2475 13.2778ZM9.43159 1.76661H15.0635V2.52495H13.2381H11.2568H9.43159V1.76661ZM11.6402 3.29157H12.8548V5.27766H11.6402V3.29157ZM11.2568 6.04427H13.2381H14.3185V7.99725H10.1766V6.04427H11.2568ZM4.34832 12.8864C4.34832 12.7729 4.44062 12.6807 4.55408 12.6807H9.44069C9.53477 13.2461 9.84755 13.6359 10.3752 13.8411C10.7977 14.0055 11.3267 14.037 11.8642 14.043V16.9374C11.8642 17.1491 12.0357 17.3207 12.2475 17.3207C12.4592 17.3207 12.6308 17.1491 12.6308 16.9374V14.043C13.1683 14.037 13.6972 14.0055 14.1198 13.8411C14.6474 13.6359 14.9603 13.2461 15.0544 12.6807H20.4127C20.5261 12.6807 20.6184 12.773 20.6184 12.8864V18.1416C20.6184 18.3533 20.79 18.5249 21.0017 18.5249C21.2134 18.5249 21.385 18.3533 21.385 18.1416V12.8864C21.385 12.3502 20.9488 11.914 20.4127 11.914H15.0851V11.1495H21.5844C21.896 11.1495 22.1495 11.403 22.1495 11.7146V24.415C22.1495 24.449 22.1544 24.4817 22.1627 24.5131H21.385V19.6748C21.385 19.4632 21.2134 19.2915 21.0017 19.2915C20.79 19.2915 20.6184 19.4632 20.6184 19.6748V24.5131H15.5525H9.18147H4.34832V12.8864ZM1.76661 25.8309V25.2797H8.79816V26.2334H2.16914C1.94718 26.2334 1.76661 26.0528 1.76661 25.8309ZM9.56477 26.2334V25.2796H15.1692V26.2334H9.56477ZM22.9674 25.8309C22.9674 26.0528 22.7868 26.2334 22.5648 26.2334H15.9358V25.2796H22.9674V25.8309Z" fill="#252525"/>
<path d="M23.3507 24.5131H22.903C22.9113 24.4817 22.9161 24.449 22.9161 24.415V11.7146C22.9161 10.9803 22.3187 10.3829 21.5844 10.3829H15.0851V8.38056V6.04427H16.0615C16.2733 6.04427 16.4448 5.87266 16.4448 5.66097C16.4448 5.44928 16.2733 5.27766 16.0615 5.27766H14.6979H13.6214V3.29157H15.4469C15.6586 3.29157 15.8302 3.11995 15.8302 2.90826V1.38331C15.8302 1.17162 15.6586 1 15.4469 1H9.04828C8.83659 1 8.66497 1.17162 8.66497 1.38331V2.90826C8.66497 3.11995 8.83659 3.29157 9.04828 3.29157H10.8735V5.27766H9.79691H8.43335C8.22167 5.27766 8.05005 5.44928 8.05005 5.66097C8.05005 5.87266 8.22167 6.04427 8.43335 6.04427H9.40987V8.38056V11.914H4.55403C4.01786 11.914 3.58165 12.3502 3.58165 12.8864V24.5131H2.80405C2.81233 24.4817 2.81718 24.449 2.81718 24.415V11.7146C2.81718 11.403 3.07068 11.1495 3.38228 11.1495H8.25995C8.47163 11.1495 8.64325 10.9779 8.64325 10.7662C8.64325 10.5545 8.47163 10.3829 8.25995 10.3829H3.38228C2.64797 10.3829 2.05057 10.9803 2.05057 11.7146V24.415C2.05057 24.449 2.05542 24.4817 2.0637 24.5131H1.38331C1.17162 24.5131 1 24.6847 1 24.8964V25.8309C1 26.4755 1.52447 27 2.16914 27H22.5648C23.2095 27 23.734 26.4755 23.734 25.8309V24.8964C23.734 24.6847 23.5623 24.5131 23.3507 24.5131ZM12.2475 13.2778C10.643 13.2778 10.1765 13.1488 10.1765 12.2941V8.76382H14.3185V12.2941C14.3185 13.0562 14.0467 13.2778 12.2475 13.2778ZM9.43159 1.76661H15.0635V2.52495H13.2381H11.2568H9.43159V1.76661ZM11.6402 3.29157H12.8548V5.27766H11.6402V3.29157ZM11.2568 6.04427H13.2381H14.3185V7.99725H10.1766V6.04427H11.2568ZM4.34832 12.8864C4.34832 12.7729 4.44062 12.6807 4.55408 12.6807H9.44069C9.53477 13.2461 9.84755 13.6359 10.3752 13.8411C10.7977 14.0055 11.3267 14.037 11.8642 14.043V16.9374C11.8642 17.1491 12.0357 17.3207 12.2475 17.3207C12.4592 17.3207 12.6308 17.1491 12.6308 16.9374V14.043C13.1683 14.037 13.6972 14.0055 14.1198 13.8411C14.6474 13.6359 14.9603 13.2461 15.0544 12.6807H20.4127C20.5261 12.6807 20.6184 12.773 20.6184 12.8864V18.1416C20.6184 18.3533 20.79 18.5249 21.0017 18.5249C21.2134 18.5249 21.385 18.3533 21.385 18.1416V12.8864C21.385 12.3502 20.9488 11.914 20.4127 11.914H15.0851V11.1495H21.5844C21.896 11.1495 22.1495 11.403 22.1495 11.7146V24.415C22.1495 24.449 22.1544 24.4817 22.1627 24.5131H21.385V19.6748C21.385 19.4632 21.2134 19.2915 21.0017 19.2915C20.79 19.2915 20.6184 19.4632 20.6184 19.6748V24.5131H15.5525H9.18147H4.34832V12.8864ZM1.76661 25.8309V25.2797H8.79816V26.2334H2.16914C1.94718 26.2334 1.76661 26.0528 1.76661 25.8309ZM9.56477 26.2334V25.2796H15.1692V26.2334H9.56477ZM22.9674 25.8309C22.9674 26.0528 22.7868 26.2334 22.5648 26.2334H15.9358V25.2796H22.9674V25.8309Z" stroke="#252525" stroke-width="0.2" mask="url(#path-1-outside-1_516_21726)"/>
<path d="M10.447 21.9235V20.3569C10.447 20.1176 10.253 19.9236 10.0137 19.9236H8.3418C8.1025 19.9236 7.9085 20.1176 7.9085 20.3569V21.9235C7.9085 22.1628 8.1025 22.3569 8.3418 22.3569H10.0137C10.253 22.3569 10.447 22.1628 10.447 21.9235ZM9.58038 21.4902H8.77511V20.7902H9.58038V21.4902Z" fill="#252525" stroke="#252525" stroke-width="0.1"/>
<path d="M11.6475 22.3569H13.3194C13.5587 22.3569 13.7527 22.1628 13.7527 21.9235V20.3569C13.7527 20.1176 13.5587 19.9236 13.3194 19.9236H11.6475C11.4082 19.9236 11.2142 20.1176 11.2142 20.3569V21.9235C11.2142 22.1628 11.4082 22.3569 11.6475 22.3569ZM12.0808 20.7902H12.886V21.4902H12.0808V20.7902Z" fill="#252525" stroke="#252525" stroke-width="0.1"/>
<path d="M14.9526 22.3569H16.6245C16.8639 22.3569 17.0578 22.1628 17.0578 21.9235V20.3569C17.0578 20.1176 16.8639 19.9236 16.6245 19.9236H14.9526C14.7133 19.9236 14.5193 20.1176 14.5193 20.3569V21.9235C14.5193 22.1628 14.7133 22.3569 14.9526 22.3569ZM15.386 20.7902H16.1912V21.4902H15.386V20.7902Z" fill="#252525" stroke="#252525" stroke-width="0.1"/>
</svg>
