<svg width="14" height="14" viewBox="0 0 14 14" fill="none" xmlns="http://www.w3.org/2000/svg">
<path d="M6.77483 0.392578L0.4375 3.44399V5.03125H13.5625V3.43525L6.77483 0.392578ZM12.6875 4.15625H1.3125V3.9935L6.78767 1.35741L12.6875 4.00225V4.15625Z" fill="#333333"/>
<path d="M1.3125 11.1562H12.6875V12.0312H1.3125V11.1562Z" fill="#333333"/>
<path d="M0.4375 12.6875H13.5625V13.5625H0.4375V12.6875Z" fill="#333333"/>
<path d="M1.53125 5.90625H2.40625V10.2812H1.53125V5.90625Z" fill="#333333"/>
<path d="M11.5938 5.90625H12.4688V10.2812H11.5938V5.90625Z" fill="#333333"/>
<path d="M8.96875 5.90625H9.84375V10.2812H8.96875V5.90625Z" fill="#333333"/>
<path d="M4.15625 5.90625H5.03125V10.2812H4.15625V5.90625Z" fill="#333333"/>
<path d="M6.5625 5.90625H7.4375V10.2812H6.5625V5.90625Z" fill="#333333"/>
</svg>
