<svg width="14" height="14" viewBox="0 0 14 14" fill="none" xmlns="http://www.w3.org/2000/svg">
<path d="M12.9062 3.50006H10.1675C10.4503 3.07924 10.5598 2.56548 10.4731 2.06591C10.3863 1.56635 10.1101 1.11955 9.70197 0.818701C9.29383 0.517848 8.78531 0.386165 8.28245 0.451114C7.77959 0.516063 7.32122 0.772629 7.00292 1.16731L7 1.17081C6.68206 0.774042 6.22288 0.515753 5.7187 0.450082C5.21453 0.384411 4.7045 0.516458 4.29554 0.818542C3.88657 1.12063 3.61042 1.5693 3.52497 2.0705C3.43952 2.5717 3.5514 3.08653 3.83717 3.50706L3.8325 3.50006H1.09375C0.919796 3.50037 0.753056 3.56961 0.630052 3.69261C0.507048 3.81561 0.437808 3.98235 0.4375 4.15631V12.9489C0.4375 13.2872 0.732083 13.5626 1.09375 13.5626H12.9062C13.2679 13.5626 13.5625 13.2872 13.5625 12.9489V4.15631C13.5622 3.98235 13.493 3.81561 13.3699 3.69261C13.2469 3.56961 13.0802 3.50037 12.9062 3.50006ZM8.53125 1.31256C8.82133 1.31256 9.09953 1.42779 9.30465 1.63291C9.50977 1.83803 9.625 2.11623 9.625 2.40631C9.625 2.69639 9.50977 2.97459 9.30465 3.17971C9.09953 3.38482 8.82133 3.50006 8.53125 3.50006H7.4375V2.40631C7.43781 2.11632 7.55314 1.8383 7.75819 1.63325C7.96324 1.4282 8.24126 1.31287 8.53125 1.31256ZM4.375 2.40631C4.375 2.11623 4.49023 1.83803 4.69535 1.63291C4.90047 1.42779 5.17867 1.31256 5.46875 1.31256C5.75883 1.31256 6.03703 1.42779 6.24215 1.63291C6.44727 1.83803 6.5625 2.11623 6.5625 2.40631V3.50006H5.46875C5.17876 3.49975 4.90074 3.38442 4.69569 3.17936C4.49064 2.97431 4.37531 2.69629 4.375 2.40631ZM1.3125 12.6876V7.00006H5.25V12.6876H1.3125ZM6.125 12.6876V7.00006H7.875V12.6876H6.125ZM12.6875 12.6876H8.75V7.00006H12.6875V12.6876ZM1.3125 6.12506V4.37506H12.6875V6.12506H1.3125Z" fill="#333333"/>
</svg>
