<svg width="18" height="18" viewBox="0 0 18 18" fill="none" xmlns="http://www.w3.org/2000/svg">
<path d="M10.1297 4.51855H7.30546C7.01422 4.51855 6.77811 4.75466 6.77811 5.0459V9.03729H6.17578C5.88455 9.03729 5.64844 9.2734 5.64844 9.56464C5.64844 9.85587 5.88455 10.092 6.17578 10.092H6.77811V11.2967H6.17578C5.88455 11.2967 5.64844 11.5328 5.64844 11.824C5.64844 12.1153 5.88455 12.3514 6.17578 12.3514H6.77811V13.5186C6.77811 13.8098 7.01422 14.0459 7.30546 14.0459C7.59669 14.0459 7.8328 13.8098 7.8328 13.5186V12.3514H10.1297C10.4209 12.3514 10.657 12.1153 10.657 11.824C10.657 11.5328 10.4209 11.2967 10.1297 11.2967H7.8328V10.092H10.1297C11.6663 10.092 12.9164 8.84186 12.9164 7.30525C12.9164 5.73067 11.6338 4.51855 10.1297 4.51855ZM10.1297 9.03729H7.8328V5.57324H10.1297C11.079 5.57324 11.8617 6.33895 11.8617 7.30528C11.8617 8.26034 11.0848 9.03729 10.1297 9.03729Z" fill="#FF9900"/>
<path d="M9 0C4.03738 0 0 4.03738 0 9C0 13.9626 4.03738 18 9 18C13.9626 18 18 13.9626 18 9C18 4.03738 13.9626 0 9 0ZM9 16.9453C4.61893 16.9453 1.05469 13.3811 1.05469 9C1.05469 4.61893 4.61893 1.05469 9 1.05469C13.3811 1.05469 16.9453 4.61893 16.9453 9C16.9453 13.3811 13.3811 16.9453 9 16.9453Z" fill="#FF9900"/>
</svg>
