<svg width="30" height="30" viewBox="0 0 30 30" fill="none" xmlns="http://www.w3.org/2000/svg">
<path d="M22.5 21.5625H8.02673C7.80718 21.5625 7.59459 21.4854 7.42603 21.3448C7.25747 21.2041 7.14363 21.0087 7.10435 20.7927L3.97519 3.5823C3.93592 3.36628 3.82207 3.17091 3.65351 3.03023C3.48495 2.88956 3.27236 2.8125 3.05281 2.8125H0.9375" stroke="#252525" stroke-width="1.3" stroke-linecap="round" stroke-linejoin="round"/>
<path d="M8.4375 26.25C9.73192 26.25 10.7812 25.2007 10.7812 23.9062C10.7812 22.6118 9.73192 21.5625 8.4375 21.5625C7.14308 21.5625 6.09375 22.6118 6.09375 23.9062C6.09375 25.2007 7.14308 26.25 8.4375 26.25Z" stroke="#252525" stroke-width="1.3" stroke-linecap="round" stroke-linejoin="round"/>
<path d="M22.5 26.25C23.7944 26.25 24.8438 25.2007 24.8438 23.9062C24.8438 22.6118 23.7944 21.5625 22.5 21.5625C21.2056 21.5625 20.1562 22.6118 20.1562 23.9062C20.1562 25.2007 21.2056 26.25 22.5 26.25Z" stroke="#252525" stroke-width="1.3" stroke-linecap="round" stroke-linejoin="round"/>
<path d="M4.6875 7.5H25.1267C25.264 7.5 25.3996 7.53016 25.524 7.58836C25.6484 7.64656 25.7585 7.73137 25.8464 7.8368C25.9344 7.94222 25.9982 8.06569 26.0332 8.19847C26.0682 8.33125 26.0736 8.4701 26.0491 8.60521L24.515 17.0427C24.4757 17.2587 24.3619 17.4541 24.1933 17.5948C24.0247 17.7354 23.8121 17.8125 23.5926 17.8125H6.5625" stroke="#252525" stroke-width="1.3" stroke-linecap="round" stroke-linejoin="round"/>
</svg>
