<svg width="20" height="20" viewBox="0 0 20 20" fill="none" xmlns="http://www.w3.org/2000/svg">
<path d="M15.3843 7.43207H12.5843V4.63207C12.5821 4.24197 12.2664 3.92627 11.8763 3.92407H8.14032C7.75022 3.92627 7.43452 4.24197 7.43232 4.63207V7.43207H4.63232C4.24222 7.43427 3.92652 7.74997 3.92432 8.14007V11.8561C3.92652 12.2462 4.24222 12.5619 4.63232 12.5641H7.43232V15.3641C7.43452 15.7542 7.75022 16.0699 8.14032 16.0721H11.8563C12.2464 16.0699 12.5621 15.7542 12.5643 15.3641V12.5641H15.3643C15.7544 12.5619 16.0701 12.2462 16.0723 11.8561V8.14007C16.0704 7.75757 15.7666 7.44497 15.3843 7.43207ZM15.2923 11.7681H12.1683C11.9474 11.7681 11.7683 11.9472 11.7683 12.1681V15.2921H8.23232V12.1681C8.23232 11.9472 8.05322 11.7681 7.83232 11.7681H4.70832V8.23207H7.83232C8.05322 8.23207 8.23232 8.05297 8.23232 7.83207V4.70807H11.7683V7.83207C11.7683 8.05297 11.9474 8.23207 12.1683 8.23207H15.2923V11.7681Z" fill="#434343"/>
<path d="M10 0C4.47715 0 0 4.47715 0 10C0 15.5229 4.47715 20 10 20C15.5229 20 20 15.5229 20 10C20 4.47715 15.5229 0 10 0ZM10 19.2C4.919 19.2 0.8 15.081 0.8 10C0.8 4.919 4.919 0.8 10 0.8C15.081 0.8 19.2 4.919 19.2 10C19.2 15.081 15.081 19.2 10 19.2Z" fill="#434343"/>
</svg>
