<svg width="16" height="14" viewBox="0 0 16 14" fill="none" xmlns="http://www.w3.org/2000/svg">
<path d="M14.7891 6.58207L8.75155 0.547696L8.34687 0.143008C8.25466 0.051409 8.12996 0 7.99999 0C7.87002 0 7.74532 0.051409 7.65312 0.143008L1.21093 6.58207C1.11645 6.67619 1.04178 6.78827 0.991323 6.91172C0.940871 7.03517 0.91566 7.16747 0.917179 7.30082C0.923429 7.85082 1.38124 8.28988 1.93124 8.28988H2.5953V13.3789H13.4047V8.28988H14.0828C14.35 8.28988 14.6016 8.18519 14.7906 7.99613C14.8837 7.90334 14.9575 7.793 15.0076 7.6715C15.0578 7.55 15.0833 7.41976 15.0828 7.28832C15.0828 7.0227 14.9781 6.77113 14.7891 6.58207ZM8.87499 12.2539H7.12499V9.06645H8.87499V12.2539ZM12.2797 7.16488V12.2539H9.87499V8.69145C9.87499 8.34613 9.5953 8.06645 9.24999 8.06645H6.74999C6.40468 8.06645 6.12499 8.34613 6.12499 8.69145V12.2539H3.7203V7.16488H2.2203L8.00155 1.38832L8.36249 1.74926L13.7812 7.16488H12.2797Z" fill="black"/>
</svg>
