<svg width="14" height="14" viewBox="0 0 14 14" fill="none" xmlns="http://www.w3.org/2000/svg">
<path d="M2.78017 10.9375H12.6875V0.4375H2.75275C2.31328 0.438884 1.8922 0.614035 1.58139 0.924732C1.27059 1.23543 1.09529 1.65645 1.09375 2.09592V11.7647H1.09433L1.09375 11.7769C1.09375 12.7447 1.85325 13.5625 2.75275 13.5625H12.6875V12.6875H2.75275C2.34267 12.6875 1.96875 12.2535 1.96875 11.7769C1.96875 11.3219 2.34033 10.9375 2.78017 10.9375ZM9.84375 1.32183V6.04742L8.52017 4.88542L7.21875 6.04042V1.32183H9.84375ZM6.34375 1.3125V7.21875H7.20883L8.52367 6.05208L9.8525 7.21875H10.7193V1.3125H11.8131V10.0625H3.72167L3.71933 1.3125H6.34375ZM2.75275 1.3125H2.84375L2.84608 10.0625H2.78017C2.4815 10.0625 2.20208 10.1424 1.96117 10.2824L1.96875 10.2783V2.1035V2.10117C1.96859 1.89291 2.05093 1.69308 2.19775 1.54538C2.34457 1.39769 2.54392 1.31416 2.75217 1.31308L2.75275 1.3125Z" fill="#333333"/>
</svg>
