<svg width="10" height="16" viewBox="0 0 10 16" fill="none" xmlns="http://www.w3.org/2000/svg">
<path d="M4.63472 2.38354C5.57776 2.38354 6.34485 3.13886 6.34485 4.06744C6.34485 4.99524 5.57757 5.75056 4.63472 5.75056C3.69227 5.75056 2.92498 4.99524 2.92498 4.06744C2.92478 3.13867 3.69246 2.38354 4.63472 2.38354ZM4.63472 8.13293C6.91266 8.13293 8.76514 6.30946 8.76514 4.06744C8.76514 1.82426 6.91286 0 4.63472 0C2.35698 0 0.504296 1.82445 0.504296 4.06744C0.504296 6.30946 2.35698 8.13293 4.63472 8.13293ZM6.30571 11.4503C7.1554 11.2598 7.96627 10.9292 8.70405 10.4725C8.97566 10.3042 9.16825 10.0366 9.23948 9.72852C9.3107 9.42043 9.25472 9.0971 9.08384 8.82966C8.99933 8.6971 8.8891 8.58225 8.75948 8.49168C8.62985 8.4011 8.48336 8.33657 8.32838 8.30179C8.17341 8.267 8.01299 8.26264 7.8563 8.28895C7.69961 8.31526 7.54973 8.37172 7.41522 8.45511C5.72308 9.50263 3.54517 9.50186 1.85441 8.45511C1.71993 8.3717 1.57006 8.31522 1.41338 8.2889C1.2567 8.26258 1.09629 8.26693 0.941325 8.30172C0.78636 8.33651 0.639881 8.40105 0.510273 8.49164C0.380664 8.58223 0.270469 8.69709 0.185993 8.82966C0.0150601 9.09703 -0.0410173 9.42031 0.0300936 9.72839C0.101205 10.0365 0.29368 10.3041 0.565188 10.4725C1.30291 10.929 2.11362 11.2596 2.96313 11.4503L0.654155 13.7243C0.427246 13.9478 0.299801 14.2509 0.299857 14.5669C0.299912 14.8829 0.427464 15.186 0.654451 15.4094C0.881439 15.6328 1.18927 15.7583 1.51022 15.7583C1.83118 15.7582 2.13896 15.6326 2.36587 15.4091L4.63432 13.1751L6.90416 15.4093C7.01639 15.52 7.14967 15.6078 7.2964 15.6677C7.44312 15.7276 7.60039 15.7584 7.75922 15.7584C7.91806 15.7584 8.07533 15.7276 8.22205 15.6677C8.36877 15.6078 8.50206 15.52 8.61429 15.4093C8.72685 15.2988 8.81616 15.1675 8.8771 15.023C8.93803 14.8785 8.9694 14.7235 8.9694 14.567C8.9694 14.4105 8.93803 14.2555 8.8771 14.111C8.81616 13.9664 8.72685 13.8351 8.61429 13.7246L6.30571 11.4503Z" fill="#00A2A9"/>
</svg>
