<svg width="30" height="30" viewBox="0 0 30 30" fill="none" xmlns="http://www.w3.org/2000/svg">
<path d="M10.9179 14.3942C10.1952 12.5916 10.1171 10.5948 10.6967 8.74119C11.2764 6.88762 12.4782 5.29103 14.0991 4.22129C15.72 3.15155 17.6606 2.67428 19.5928 2.87015C21.525 3.06601 23.3303 3.92301 24.7035 5.29628C26.0768 6.66954 26.9338 8.47484 27.1296 10.407C27.3255 12.3392 26.8482 14.2798 25.7785 15.9007C24.7087 17.5216 23.1121 18.7234 21.2586 19.3031C19.405 19.8827 17.4081 19.8045 15.6055 19.0819L15.6056 19.0817L14.0625 20.6248H11.25V23.4373H8.4375V26.2498H3.75V21.5623L10.9181 14.3941L10.9179 14.3942Z" stroke="#252525" stroke-width="1.3" stroke-linecap="round" stroke-linejoin="round"/>
<path d="M21.0938 9.375C21.3526 9.375 21.5625 9.16513 21.5625 8.90625C21.5625 8.64737 21.3526 8.4375 21.0938 8.4375C20.8349 8.4375 20.625 8.64737 20.625 8.90625C20.625 9.16513 20.8349 9.375 21.0938 9.375Z" stroke="#252525" stroke-width="1.3" stroke-linecap="round" stroke-linejoin="round"/>
<path d="M21.0938 10.3125C21.8704 10.3125 22.5 9.6829 22.5 8.90625C22.5 8.1296 21.8704 7.5 21.0938 7.5C20.3171 7.5 19.6875 8.1296 19.6875 8.90625C19.6875 9.6829 20.3171 10.3125 21.0938 10.3125Z" stroke="#252525" stroke-width="1.3" stroke-linecap="round" stroke-linejoin="round"/>
</svg>
