<svg width="14" height="14" viewBox="0 0 14 14" fill="none" xmlns="http://www.w3.org/2000/svg">
<path d="M12.8766 9.1894C12.0191 9.1894 11.1775 9.05534 10.38 8.79178C9.982 8.65543 9.53083 8.76101 9.2703 9.02573L7.6965 10.2141C5.87129 9.23956 4.7464 8.11541 3.78481 6.30354L4.93934 4.76963C5.23935 4.46961 5.3457 4.03247 5.21657 3.62385C4.95224 2.821 4.81779 1.97943 4.81779 1.12343C4.81782 0.503964 4.31422 0 3.69443 0H1.12335C0.503563 0 0 0.503964 0 1.12335C0 8.22365 5.77639 14 12.8766 14C13.4964 14 14 13.496 14 12.8766V10.3127C14 9.69336 13.4964 9.1894 12.8766 9.1894ZM13.2222 12.8766C13.2222 13.0673 13.0673 13.2222 12.8766 13.2222C6.20554 13.2222 0.777802 7.79486 0.777802 1.12339C0.777802 0.93275 0.93275 0.777802 1.12339 0.777802H3.69447C3.88511 0.777802 4.04006 0.93275 4.04006 1.12339C4.04006 2.06256 4.18742 2.98579 4.47679 3.86309C4.51704 3.99106 4.48438 4.12475 4.35374 4.2607L3.01616 6.03123C2.92655 6.14972 2.91288 6.30922 2.98047 6.44175C4.07196 8.58634 5.39737 9.91251 7.55752 11.0188C7.68892 11.0872 7.84919 11.0735 7.96921 10.9831L9.77999 9.611C9.87343 9.51909 10.0101 9.48795 10.1324 9.52897C11.0128 9.81987 11.9363 9.96723 12.8767 9.96723C13.0673 9.96723 13.2223 10.1222 13.2223 10.3128V12.8766H13.2222Z" fill="#434343"/>
<path d="M7.24 7.74813C7.28787 7.76826 7.33873 7.77777 7.38886 7.77777C7.48989 7.77777 7.58939 7.73829 7.66383 7.66384L9.10547 6.22221H12.8212C13.4645 6.22221 13.9879 5.69888 13.9879 5.05554V1.95622C13.9879 1.31287 13.4645 0.789551 12.8212 0.789551H8.16667C7.52332 0.789551 7 1.31287 7 1.95622V7.38887C7 7.54608 7.09494 7.68812 7.24 7.74813ZM7.77777 1.95618C7.77777 1.74162 7.95247 1.56728 8.16667 1.56728H12.8212C13.0354 1.56728 13.2101 1.74159 13.2101 1.95618V5.0555C13.2101 5.27006 13.0354 5.4444 12.8212 5.4444H8.94443C8.84115 5.4444 8.74238 5.48542 8.66946 5.55834L7.77777 6.45004V1.95618Z" fill="#434343"/>
</svg>
