<svg width="15" height="15" viewBox="0 0 15 15" fill="none" xmlns="http://www.w3.org/2000/svg">
<path fill-rule="evenodd" clip-rule="evenodd" d="M8.2964 1.375C8.2964 0.960786 7.96061 0.625 7.5464 0.625C7.13218 0.625 6.7964 0.960786 6.7964 1.375V7.04484H1.125C0.710786 7.04484 0.375 7.38063 0.375 7.79484C0.375 8.20905 0.710786 8.54484 1.125 8.54484H6.7964V14.2147C6.7964 14.629 7.13218 14.9647 7.5464 14.9647C7.96061 14.9647 8.2964 14.629 8.2964 14.2147V8.54484H13.9647C14.379 8.54484 14.7147 8.20905 14.7147 7.79484C14.7147 7.38063 14.379 7.04484 13.9647 7.04484H8.2964V1.375Z" fill="#00A2A9"/>
</svg>
