<svg width="14" height="16" viewBox="0 0 14 16" fill="none" xmlns="http://www.w3.org/2000/svg">
<path d="M7.39473 0.532516C7.28602 0.433575 7.14552 0.378906 6.99994 0.378906C6.85436 0.378906 6.71386 0.433575 6.60516 0.532516C5.87689 1.19326 5.34181 2.04709 5.05919 2.99945C4.77657 3.9518 4.75745 4.96551 5.00392 5.9283C3.83605 5.22397 2.48287 4.90786 1.13152 5.02367C1.05129 5.03042 0.973158 5.05332 0.901627 5.09106C0.830097 5.12879 0.766582 5.18063 0.714744 5.24356C0.662905 5.3065 0.623768 5.3793 0.599587 5.45776C0.575406 5.53622 0.566659 5.6188 0.573851 5.70073C0.687962 6.98432 1.27692 8.25851 2.09318 9.24588C1.77283 9.22499 1.45142 9.22814 1.13152 9.25529C1.05129 9.26203 0.973158 9.28493 0.901627 9.32267C0.830097 9.36041 0.766582 9.41224 0.714744 9.47518C0.662905 9.53812 0.623768 9.61091 0.599587 9.68937C0.575406 9.76784 0.566659 9.85041 0.573851 9.93235C0.706119 11.4205 1.37808 12.8043 2.45777 13.8121C3.53745 14.8198 4.94684 15.3787 6.40914 15.3789H7.59074C9.0529 15.3787 10.4622 14.82 11.5418 13.8124C12.6215 12.8049 13.2935 11.4213 13.426 9.93329C13.4334 9.85128 13.4247 9.7686 13.4006 9.69003C13.3765 9.61146 13.3373 9.53855 13.2855 9.47551C13.2336 9.41247 13.1701 9.36056 13.0985 9.32276C13.0269 9.28496 12.9487 9.26203 12.8684 9.25529C12.5485 9.22813 12.227 9.22499 11.9067 9.24588C12.723 8.25851 13.3119 6.98432 13.426 5.70073C13.4331 5.61882 13.4243 5.53629 13.4 5.45788C13.3758 5.37947 13.3367 5.30673 13.2848 5.24382C13.233 5.18091 13.1696 5.12907 13.0981 5.0913C13.0266 5.05352 12.9485 5.03054 12.8684 5.02367C11.517 4.90786 10.1638 5.22397 8.99596 5.9283C9.24244 4.96551 9.22331 3.9518 8.94069 2.99945C8.65807 2.04709 8.123 1.19326 7.39473 0.532516ZM6.99994 12.0199C6.21296 10.9042 5.10996 10.062 3.83981 9.60698C3.82942 9.59837 3.81867 9.59022 3.8076 9.58253C2.7033 8.81426 1.76833 7.38585 1.53183 5.94334C2.91662 5.90688 4.26603 6.39297 5.32233 7.30874C6.02172 7.9134 6.21313 8.46539 6.38614 8.9619C6.44871 9.14056 6.50853 9.31265 6.58859 9.47627C6.62685 9.55427 6.68558 9.61985 6.75823 9.66568C6.83087 9.71151 6.91457 9.73578 6.99994 9.73578C7.08532 9.73578 7.16901 9.71151 7.24166 9.66568C7.3143 9.61985 7.37304 9.55427 7.41129 9.47627C7.49227 9.31265 7.55209 9.14056 7.61375 8.96096C7.78675 8.46633 7.97908 7.9134 8.67755 7.30874C9.73395 6.39241 11.0837 5.90597 12.469 5.9424C12.2316 7.38585 11.2975 8.81426 10.1923 9.58253C10.1812 9.59018 10.1704 9.59833 10.1601 9.60698C8.88989 10.0619 7.78688 10.9042 6.99994 12.0199ZM6.40914 14.4385C5.23201 14.4383 4.09365 14.0086 3.19911 13.2267C2.30457 12.4449 1.71265 11.3623 1.52999 10.174C2.55754 10.1474 3.5727 10.408 4.46584 10.9279C5.35898 11.4478 6.09617 12.2071 6.59779 13.1239C6.63765 13.1972 6.69596 13.2582 6.76666 13.3007C6.83737 13.3432 6.91791 13.3656 6.99994 13.3656C7.08197 13.3656 7.16251 13.3432 7.23322 13.3007C7.30393 13.2582 7.36223 13.1972 7.40209 13.1239C7.90371 12.2071 8.6409 11.4478 9.53404 10.9279C10.4272 10.408 11.4423 10.1474 12.4699 10.174C12.2872 11.3623 11.6953 12.4449 10.8008 13.2267C9.90623 14.0086 8.76787 14.4383 7.59074 14.4385H6.40914ZM6.99994 7.68301C6.2011 6.85017 5.75366 5.73048 5.75366 4.56431C5.75366 3.39813 6.2011 2.27844 6.99994 1.44561C7.79878 2.27844 8.24623 3.39813 8.24623 4.56431C8.24623 5.73048 7.79878 6.85017 6.99994 7.68301Z" fill="black"/>
</svg>
