<svg width="23" height="26" viewBox="0 0 23 26" fill="none" xmlns="http://www.w3.org/2000/svg">
<path d="M8.12482 22.75H7.0415V23.8333H8.12482V22.75Z" fill="#252525"/>
<path d="M10.2918 22.75H9.2085V23.8333H10.2918V22.75Z" fill="#252525"/>
<path d="M9.20832 19.5H8.125V21.6667H9.20832V19.5Z" fill="#252525"/>
<path d="M22.6769 7.76262L21.4733 5.68643C21.3969 5.55481 21.2696 5.46543 21.125 5.43237V2.70832V0.541684C21.125 0.242125 20.8823 0 20.5833 0H13C12.701 0 12.4583 0.242125 12.4583 0.541684V2.70837V5.43293C12.3104 5.46706 12.1804 5.55968 12.1051 5.69563L10.9016 7.86231C10.8566 7.94249 10.8333 8.03293 10.8333 8.125V14.625H1.625C1.02756 14.625 0.541684 15.1109 0.541684 15.7083V17.3333C0.242684 17.3333 0 17.5754 0 17.875V20.0417V23.2917V24.9167C0 25.5141 0.485875 26 1.08332 26H15.7083H21.0047C21.1423 26 21.2751 25.9474 21.3752 25.8532L22.5788 24.7249C22.6882 24.6231 22.75 24.4795 22.75 24.33V8.03456C22.75 7.93919 22.7251 7.84494 22.6769 7.76262ZM13.5417 1.08332H20.0417V2.16663H17.875H15.7083H13.5416V1.08332H13.5417ZM17.3333 3.25C17.3333 3.549 17.0901 3.79168 16.7916 3.79168C16.4931 3.79168 16.25 3.549 16.25 3.25H17.3333ZM13.5417 3.25H15.1667C15.1667 4.14593 15.8958 4.875 16.7917 4.875C17.6876 4.875 18.4167 4.14593 18.4167 3.25H20.0417V5.41668H13.5417V3.25ZM1.625 15.7083H11.375H14.625V17.3333H1.625V15.7083ZM1.08332 20.5833H4.33332V22.75H1.08332V20.5833ZM15.1667 19.5H10.8334V20.5833H15.1667V21.6666H11.9167V22.75H15.1667V24.9167H1.08332V23.8334H4.875C5.174 23.8334 5.41668 23.5912 5.41668 23.2917V20.0417C5.41668 19.7421 5.174 19.5 4.875 19.5H1.08332V18.4167H15.1666V19.5H15.1667ZM21.6667 24.0949L20.7902 24.9166H16.25V17.875C16.25 17.5754 16.0073 17.3333 15.7083 17.3333V16.25H18.9583V15.1667H15.5578C15.3698 14.8444 15.0242 14.625 14.625 14.625H11.9167V8.26531L12.8976 6.5H13H20.5833H20.6928L21.6667 8.18025V24.0949Z" fill="#252525"/>
<path d="M18.9585 8.6665H15.7085C14.8126 8.6665 14.0835 9.39557 14.0835 10.2915V11.3748C14.0835 11.6744 14.3262 11.9165 14.6252 11.9165H17.8752C18.7711 11.9165 19.5002 11.1874 19.5002 10.2915V9.20819C19.5002 8.90863 19.2575 8.6665 18.9585 8.6665ZM18.4169 10.2915C18.4169 10.5905 18.1737 10.8332 17.8752 10.8332H15.1669V10.2915C15.1669 9.9925 15.4101 9.74982 15.7085 9.74982H18.4169V10.2915Z" fill="#252525"/>
<path d="M17.8752 13H15.7085V14.0833H17.8752V13Z" fill="#252525"/>
<path d="M6.30101 6.07768C6.43264 5.6893 6.49982 5.28686 6.49982 4.87518C6.49982 2.78487 4.799 1.0835 2.70814 1.0835C2.1697 1.0835 1.64539 1.19725 1.14976 1.42094C1.02951 1.47512 0.933637 1.571 0.878945 1.69125C0.654695 2.18687 0.541504 2.71119 0.541504 3.25018C0.541504 5.34049 2.24232 7.04186 4.33319 7.04186C4.74431 7.04186 5.14675 6.97468 5.53513 6.84361L6.20681 7.5153L6.97275 6.74936L6.30101 6.07768ZM5.39101 5.16712L4.71608 4.49219L3.95014 5.25812L4.62508 5.93305C4.52758 5.94336 4.4317 5.9585 4.33314 5.9585C2.83976 5.9585 1.62482 4.74355 1.62482 3.25018C1.62482 2.93493 1.67951 2.62618 1.78788 2.32987C2.0847 2.22206 2.39294 2.16681 2.70819 2.16681C4.20156 2.16681 5.4165 3.38175 5.4165 4.87513C5.4165 4.97375 5.40132 5.07018 5.39101 5.16712Z" fill="#252525"/>
<path d="M8.99912 9.14588C8.94494 9.02619 8.84906 8.93031 8.72937 8.87557C8.42331 8.73689 8.09831 8.6665 7.76356 8.6665C6.4695 8.6665 5.4165 9.71895 5.4165 11.0136C5.4165 11.3472 5.48694 11.6722 5.62557 11.9788C5.67975 12.0985 5.77563 12.1944 5.89532 12.2491C6.20138 12.3878 6.52638 12.4582 6.86113 12.4582C8.15519 12.4582 9.20819 11.4057 9.20819 10.1111C9.20819 9.77745 9.1378 9.45244 8.99912 9.14588ZM6.86118 11.3748C6.7523 11.3748 6.64612 11.3613 6.54161 11.3336C6.51399 11.2286 6.49992 11.1218 6.49992 11.0135C6.49987 10.3169 7.067 9.74982 7.76356 9.74982C7.87244 9.74982 7.97862 9.76338 8.08313 9.791C8.11075 9.89607 8.12482 10.0028 8.12482 10.1111C8.12487 10.8077 7.55775 11.3748 6.86118 11.3748Z" fill="#252525"/>
</svg>
