<svg width="28" height="28" viewBox="0 0 28 28" fill="none" xmlns="http://www.w3.org/2000/svg">
<path d="M12.7001 6.5833H4.0334C3.28781 6.5833 2.6834 7.18772 2.6834 7.9333V14C2.6834 14.7456 3.28781 15.35 4.0334 15.35H12.7001C13.4457 15.35 14.0501 14.7456 14.0501 14V7.9333C14.0501 7.18772 13.4457 6.5833 12.7001 6.5833ZM13.0834 14C13.0834 14.2117 12.9118 14.3833 12.7001 14.3833H4.0334C3.82169 14.3833 3.65007 14.2117 3.65007 14V7.9333C3.65007 7.72159 3.82169 7.54997 4.0334 7.54997H12.7001C12.9118 7.54997 13.0834 7.72159 13.0834 7.9333V14Z" fill="#252525" stroke="#252525" stroke-width="0.1"/>
<path d="M4.89984 16.1165H4.03317C3.52691 16.1165 3.1165 16.5269 3.1165 17.0332V18.7665C3.1165 19.2728 3.52691 19.6832 4.03317 19.6832H4.89984C5.4061 19.6832 5.8165 19.2728 5.8165 18.7665V17.0332C5.8165 16.5269 5.4061 16.1165 4.89984 16.1165ZM4.08317 18.7165V17.0832H4.84984V18.7165H4.08317Z" fill="#252525" stroke="#252525" stroke-width="0.1"/>
<path d="M12.7001 16.1165H11.8335C11.3272 16.1165 10.9168 16.5269 10.9168 17.0332V18.7665C10.9168 19.2728 11.3272 19.6832 11.8335 19.6832H12.7001C13.2064 19.6832 13.6168 19.2728 13.6168 18.7665V17.0332C13.6168 16.5269 13.2064 16.1165 12.7001 16.1165ZM11.8835 18.7165V17.0832H12.6501V18.7165H11.8835Z" fill="#252525" stroke="#252525" stroke-width="0.1"/>
<path d="M4.89984 20.45H4.03317C3.52691 20.45 3.1165 20.8604 3.1165 21.3667V23.1C3.1165 23.6063 3.52691 24.0167 4.03317 24.0167H4.89984C5.4061 24.0167 5.8165 23.6063 5.8165 23.1V21.3667C5.8165 20.8604 5.4061 20.45 4.89984 20.45ZM4.08317 23.05V21.4167H4.84984V23.05H4.08317Z" fill="#252525" stroke="#252525" stroke-width="0.1"/>
<path d="M12.7001 20.45H11.8335C11.3272 20.45 10.9168 20.8604 10.9168 21.3667V23.1C10.9168 23.6063 11.3272 24.0167 11.8335 24.0167H12.7001C13.2064 24.0167 13.6168 23.6063 13.6168 23.1V21.3667C13.6168 20.8604 13.2064 20.45 12.7001 20.45ZM11.8835 23.05V21.4167H12.6501V23.05H11.8835Z" fill="#252525" stroke="#252525" stroke-width="0.1"/>
<path d="M9.66663 16.5501H7.06663C6.7997 16.5501 6.5833 16.7665 6.5833 17.0334C6.5833 17.3004 6.7997 17.5168 7.06663 17.5168H9.66663C9.93357 17.5168 10.15 17.3004 10.15 17.0334C10.15 16.7665 9.93357 16.5501 9.66663 16.5501Z" fill="#252525" stroke="#252525" stroke-width="0.1"/>
<path d="M9.66663 18.2835H7.06663C6.7997 18.2835 6.5833 18.4999 6.5833 18.7668C6.5833 19.0338 6.7997 19.2502 7.06663 19.2502H9.66663C9.93357 19.2502 10.15 19.0338 10.15 18.7668C10.15 18.4999 9.93357 18.2835 9.66663 18.2835Z" fill="#252525" stroke="#252525" stroke-width="0.1"/>
<path d="M9.66663 20.8831H7.06663C6.7997 20.8831 6.5833 21.0995 6.5833 21.3664C6.5833 21.6334 6.7997 21.8498 7.06663 21.8498H9.66663C9.93357 21.8498 10.15 21.6334 10.15 21.3664C10.15 21.0995 9.93357 20.8831 9.66663 20.8831Z" fill="#252525" stroke="#252525" stroke-width="0.1"/>
<path d="M9.66663 22.6165H7.06663C6.7997 22.6165 6.5833 22.8329 6.5833 23.0998C6.5833 23.3668 6.7997 23.5832 7.06663 23.5832H9.66663C9.93357 23.5832 10.15 23.3668 10.15 23.0998C10.15 22.8329 9.93357 22.6165 9.66663 22.6165Z" fill="#252525" stroke="#252525" stroke-width="0.1"/>
<mask id="path-10-outside-1_516_21706" maskUnits="userSpaceOnUse" x="0" y="0" width="28" height="28" fill="black">
<rect fill="white" width="28" height="28"/>
<path d="M24.8333 1H22.2333C21.0373 1.00143 20.0681 1.97064 20.0667 3.16667H19.2C18.004 3.1681 17.0348 4.13731 17.0333 5.33333V8.8C17.0348 9.99602 18.004 10.9652 19.2 10.9667H20.0667V11.8333C20.0667 12.7906 19.2906 13.5667 18.3333 13.5667H15.7333V7.5C15.7316 5.99348 14.6244 4.71655 13.1333 4.50133V1.86667C13.1333 1.38802 12.7453 1 12.2667 1H11.4C10.9214 1 10.5333 1.38802 10.5333 1.86667V4.46667H6.2V1.86667C6.2 1.38802 5.81198 1 5.33333 1H4.46667C3.98802 1 3.6 1.38802 3.6 1.86667V4.50133C2.10893 4.71655 1.00177 5.99348 1 7.5V23.1C1.00263 25.2528 2.74718 26.9974 4.9 27H11.8333C13.9862 26.9974 15.7307 25.2528 15.7333 23.1V14.4333H18.3333C19.2906 14.4333 20.0667 15.2094 20.0667 16.1667V19.2H19.2C18.004 19.2014 17.0348 20.1706 17.0333 21.3667V24.8333C17.0348 26.0294 18.004 26.9986 19.2 27H21.8C22.996 26.9986 23.9652 26.0294 23.9667 24.8333H24.8333C26.0294 24.8319 26.9986 23.8627 27 22.6667V19.2C26.9986 18.004 26.0294 17.0348 24.8333 17.0333H23.9667V16.1667C23.966 15.2947 23.5283 14.4811 22.801 14C23.5283 13.5189 23.966 12.7053 23.9667 11.8333V8.8H24.8333C26.0294 8.79857 26.9986 7.82936 27 6.63333V3.16667C26.9986 1.97064 26.0294 1.00143 24.8333 1ZM11.4 1.86667H12.2667V4.46667H11.4V1.86667ZM4.46667 1.86667H5.33333V4.46667H4.46667V1.86667ZM14.8667 23.1C14.8648 24.7745 13.5078 26.1314 11.8333 26.1333H4.9C3.22553 26.1314 1.86858 24.7745 1.86667 23.1V7.5C1.8681 6.30398 2.83731 5.33477 4.03333 5.33333H12.7C13.896 5.33477 14.8652 6.30398 14.8667 7.5V23.1ZM17.9 8.8V5.33333C17.9 4.61536 18.482 4.03333 19.2 4.03333H21.8C22.518 4.03333 23.1 4.61536 23.1 5.33333V8.8C23.1 9.51797 22.518 10.1 21.8 10.1H19.2C18.482 10.1 17.9 9.51797 17.9 8.8ZM21.8 26.1333H19.2C18.482 26.1333 17.9 25.5513 17.9 24.8333V21.3667C17.9 20.6487 18.482 20.0667 19.2 20.0667H20.0667V22.6667C20.0681 23.8627 21.0373 24.8319 22.2333 24.8333H23.1C23.1 25.5513 22.518 26.1333 21.8 26.1333ZM26.1333 19.2V22.6667C26.1333 23.3846 25.5513 23.9667 24.8333 23.9667H22.2333C21.5154 23.9667 20.9333 23.3846 20.9333 22.6667V19.2C20.9333 18.482 21.5154 17.9 22.2333 17.9H24.8333C25.5513 17.9 26.1333 18.482 26.1333 19.2ZM23.1 16.1667V17.0333H22.2333C21.763 17.0349 21.3062 17.1912 20.9333 17.4779V16.1667C20.9332 15.5262 20.6954 14.9086 20.266 14.4333H21.3667C22.324 14.4333 23.1 15.2094 23.1 16.1667ZM21.3667 13.5667H20.266C20.6954 13.0914 20.9332 12.4738 20.9333 11.8333V10.9667H21.8C22.2704 10.9651 22.7272 10.8089 23.1 10.5221V11.8333C23.1 12.293 22.9174 12.7339 22.5923 13.059C22.2673 13.384 21.8264 13.5667 21.3667 13.5667ZM26.1333 6.63333C26.1333 7.3513 25.5513 7.93333 24.8333 7.93333H23.9667V5.33333C23.9652 4.13731 22.996 3.1681 21.8 3.16667H20.9333C20.9333 2.4487 21.5154 1.86667 22.2333 1.86667H24.8333C25.5513 1.86667 26.1333 2.4487 26.1333 3.16667V6.63333Z"/>
</mask>
<path d="M24.8333 1H22.2333C21.0373 1.00143 20.0681 1.97064 20.0667 3.16667H19.2C18.004 3.1681 17.0348 4.13731 17.0333 5.33333V8.8C17.0348 9.99602 18.004 10.9652 19.2 10.9667H20.0667V11.8333C20.0667 12.7906 19.2906 13.5667 18.3333 13.5667H15.7333V7.5C15.7316 5.99348 14.6244 4.71655 13.1333 4.50133V1.86667C13.1333 1.38802 12.7453 1 12.2667 1H11.4C10.9214 1 10.5333 1.38802 10.5333 1.86667V4.46667H6.2V1.86667C6.2 1.38802 5.81198 1 5.33333 1H4.46667C3.98802 1 3.6 1.38802 3.6 1.86667V4.50133C2.10893 4.71655 1.00177 5.99348 1 7.5V23.1C1.00263 25.2528 2.74718 26.9974 4.9 27H11.8333C13.9862 26.9974 15.7307 25.2528 15.7333 23.1V14.4333H18.3333C19.2906 14.4333 20.0667 15.2094 20.0667 16.1667V19.2H19.2C18.004 19.2014 17.0348 20.1706 17.0333 21.3667V24.8333C17.0348 26.0294 18.004 26.9986 19.2 27H21.8C22.996 26.9986 23.9652 26.0294 23.9667 24.8333H24.8333C26.0294 24.8319 26.9986 23.8627 27 22.6667V19.2C26.9986 18.004 26.0294 17.0348 24.8333 17.0333H23.9667V16.1667C23.966 15.2947 23.5283 14.4811 22.801 14C23.5283 13.5189 23.966 12.7053 23.9667 11.8333V8.8H24.8333C26.0294 8.79857 26.9986 7.82936 27 6.63333V3.16667C26.9986 1.97064 26.0294 1.00143 24.8333 1ZM11.4 1.86667H12.2667V4.46667H11.4V1.86667ZM4.46667 1.86667H5.33333V4.46667H4.46667V1.86667ZM14.8667 23.1C14.8648 24.7745 13.5078 26.1314 11.8333 26.1333H4.9C3.22553 26.1314 1.86858 24.7745 1.86667 23.1V7.5C1.8681 6.30398 2.83731 5.33477 4.03333 5.33333H12.7C13.896 5.33477 14.8652 6.30398 14.8667 7.5V23.1ZM17.9 8.8V5.33333C17.9 4.61536 18.482 4.03333 19.2 4.03333H21.8C22.518 4.03333 23.1 4.61536 23.1 5.33333V8.8C23.1 9.51797 22.518 10.1 21.8 10.1H19.2C18.482 10.1 17.9 9.51797 17.9 8.8ZM21.8 26.1333H19.2C18.482 26.1333 17.9 25.5513 17.9 24.8333V21.3667C17.9 20.6487 18.482 20.0667 19.2 20.0667H20.0667V22.6667C20.0681 23.8627 21.0373 24.8319 22.2333 24.8333H23.1C23.1 25.5513 22.518 26.1333 21.8 26.1333ZM26.1333 19.2V22.6667C26.1333 23.3846 25.5513 23.9667 24.8333 23.9667H22.2333C21.5154 23.9667 20.9333 23.3846 20.9333 22.6667V19.2C20.9333 18.482 21.5154 17.9 22.2333 17.9H24.8333C25.5513 17.9 26.1333 18.482 26.1333 19.2ZM23.1 16.1667V17.0333H22.2333C21.763 17.0349 21.3062 17.1912 20.9333 17.4779V16.1667C20.9332 15.5262 20.6954 14.9086 20.266 14.4333H21.3667C22.324 14.4333 23.1 15.2094 23.1 16.1667ZM21.3667 13.5667H20.266C20.6954 13.0914 20.9332 12.4738 20.9333 11.8333V10.9667H21.8C22.2704 10.9651 22.7272 10.8089 23.1 10.5221V11.8333C23.1 12.293 22.9174 12.7339 22.5923 13.059C22.2673 13.384 21.8264 13.5667 21.3667 13.5667ZM26.1333 6.63333C26.1333 7.3513 25.5513 7.93333 24.8333 7.93333H23.9667V5.33333C23.9652 4.13731 22.996 3.1681 21.8 3.16667H20.9333C20.9333 2.4487 21.5154 1.86667 22.2333 1.86667H24.8333C25.5513 1.86667 26.1333 2.4487 26.1333 3.16667V6.63333Z" fill="#252525"/>
<path d="M24.8333 1H22.2333C21.0373 1.00143 20.0681 1.97064 20.0667 3.16667H19.2C18.004 3.1681 17.0348 4.13731 17.0333 5.33333V8.8C17.0348 9.99602 18.004 10.9652 19.2 10.9667H20.0667V11.8333C20.0667 12.7906 19.2906 13.5667 18.3333 13.5667H15.7333V7.5C15.7316 5.99348 14.6244 4.71655 13.1333 4.50133V1.86667C13.1333 1.38802 12.7453 1 12.2667 1H11.4C10.9214 1 10.5333 1.38802 10.5333 1.86667V4.46667H6.2V1.86667C6.2 1.38802 5.81198 1 5.33333 1H4.46667C3.98802 1 3.6 1.38802 3.6 1.86667V4.50133C2.10893 4.71655 1.00177 5.99348 1 7.5V23.1C1.00263 25.2528 2.74718 26.9974 4.9 27H11.8333C13.9862 26.9974 15.7307 25.2528 15.7333 23.1V14.4333H18.3333C19.2906 14.4333 20.0667 15.2094 20.0667 16.1667V19.2H19.2C18.004 19.2014 17.0348 20.1706 17.0333 21.3667V24.8333C17.0348 26.0294 18.004 26.9986 19.2 27H21.8C22.996 26.9986 23.9652 26.0294 23.9667 24.8333H24.8333C26.0294 24.8319 26.9986 23.8627 27 22.6667V19.2C26.9986 18.004 26.0294 17.0348 24.8333 17.0333H23.9667V16.1667C23.966 15.2947 23.5283 14.4811 22.801 14C23.5283 13.5189 23.966 12.7053 23.9667 11.8333V8.8H24.8333C26.0294 8.79857 26.9986 7.82936 27 6.63333V3.16667C26.9986 1.97064 26.0294 1.00143 24.8333 1ZM11.4 1.86667H12.2667V4.46667H11.4V1.86667ZM4.46667 1.86667H5.33333V4.46667H4.46667V1.86667ZM14.8667 23.1C14.8648 24.7745 13.5078 26.1314 11.8333 26.1333H4.9C3.22553 26.1314 1.86858 24.7745 1.86667 23.1V7.5C1.8681 6.30398 2.83731 5.33477 4.03333 5.33333H12.7C13.896 5.33477 14.8652 6.30398 14.8667 7.5V23.1ZM17.9 8.8V5.33333C17.9 4.61536 18.482 4.03333 19.2 4.03333H21.8C22.518 4.03333 23.1 4.61536 23.1 5.33333V8.8C23.1 9.51797 22.518 10.1 21.8 10.1H19.2C18.482 10.1 17.9 9.51797 17.9 8.8ZM21.8 26.1333H19.2C18.482 26.1333 17.9 25.5513 17.9 24.8333V21.3667C17.9 20.6487 18.482 20.0667 19.2 20.0667H20.0667V22.6667C20.0681 23.8627 21.0373 24.8319 22.2333 24.8333H23.1C23.1 25.5513 22.518 26.1333 21.8 26.1333ZM26.1333 19.2V22.6667C26.1333 23.3846 25.5513 23.9667 24.8333 23.9667H22.2333C21.5154 23.9667 20.9333 23.3846 20.9333 22.6667V19.2C20.9333 18.482 21.5154 17.9 22.2333 17.9H24.8333C25.5513 17.9 26.1333 18.482 26.1333 19.2ZM23.1 16.1667V17.0333H22.2333C21.763 17.0349 21.3062 17.1912 20.9333 17.4779V16.1667C20.9332 15.5262 20.6954 14.9086 20.266 14.4333H21.3667C22.324 14.4333 23.1 15.2094 23.1 16.1667ZM21.3667 13.5667H20.266C20.6954 13.0914 20.9332 12.4738 20.9333 11.8333V10.9667H21.8C22.2704 10.9651 22.7272 10.8089 23.1 10.5221V11.8333C23.1 12.293 22.9174 12.7339 22.5923 13.059C22.2673 13.384 21.8264 13.5667 21.3667 13.5667ZM26.1333 6.63333C26.1333 7.3513 25.5513 7.93333 24.8333 7.93333H23.9667V5.33333C23.9652 4.13731 22.996 3.1681 21.8 3.16667H20.9333C20.9333 2.4487 21.5154 1.86667 22.2333 1.86667H24.8333C25.5513 1.86667 26.1333 2.4487 26.1333 3.16667V6.63333Z" stroke="#252525" stroke-width="0.2" mask="url(#path-10-outside-1_516_21706)"/>
<path d="M4.90004 9.71675H4.90006C5.02824 9.71672 5.15115 9.66578 5.24177 9.57513C5.24177 9.57513 5.24178 9.57513 5.24178 9.57513L5.67511 9.1418L5.67511 9.14181L5.67571 9.14118C5.85888 8.95153 5.85627 8.65007 5.66983 8.46364C5.48339 8.2772 5.18193 8.27458 4.99228 8.45775L4.99228 8.45774L4.99166 8.45836L4.55833 8.89169L4.55832 8.8917C4.42013 9.02993 4.3788 9.23778 4.4536 9.41836C4.52839 9.59894 4.70458 9.7167 4.90004 9.71675Z" fill="#252525" stroke="#252525" stroke-width="0.1"/>
<path d="M7.59233 8.45775L7.59232 8.45774L7.59171 8.45836L4.55867 11.4914C4.43326 11.6127 4.38299 11.7923 4.42719 11.9611C4.47142 12.1301 4.60339 12.2621 4.77238 12.3063C4.94123 12.3505 5.12077 12.3002 5.24212 12.1748L8.27515 9.1418L8.27516 9.14181L8.27576 9.14118C8.45893 8.95153 8.45631 8.65007 8.26987 8.46364C8.08343 8.2772 7.78198 8.27458 7.59233 8.45775Z" fill="#252525" stroke="#252525" stroke-width="0.1"/>
</svg>
