<svg width="26" height="26" viewBox="0 0 26 26" fill="none" xmlns="http://www.w3.org/2000/svg">
<path d="M12.4583 11.9165H1.625C0.727543 11.9165 0 12.644 0 13.5415V24.3748C0 25.2723 0.727543 25.9998 1.625 25.9998H12.4583C13.3558 25.9998 14.0833 25.2723 14.0833 24.3748V13.5415C14.0833 12.644 13.3558 11.9165 12.4583 11.9165ZM13 24.3748C13 24.674 12.7575 24.9165 12.4583 24.9165H1.625C1.32585 24.9165 1.08332 24.674 1.08332 24.3748V13.5415C1.08332 13.2424 1.32585 12.9998 1.625 12.9998H12.4583C12.7575 12.9998 13 13.2424 13 13.5415V24.3748Z" fill="#252525"/>
<path d="M8.66686 14.0835V16.7918H5.41686V14.0835H4.3335V17.3335C4.3335 17.6326 4.57603 17.8752 4.87518 17.8752H9.2085C9.50765 17.8752 9.75018 17.6326 9.75018 17.3335V14.0835H8.66686Z" fill="#252525"/>
<path d="M5.41686 20.0415H3.25018C2.95103 20.0415 2.7085 20.284 2.7085 20.5832V22.7498C2.7085 23.049 2.95103 23.2915 3.25018 23.2915H5.41686C5.71602 23.2915 5.95855 23.049 5.95855 22.7498V20.5831C5.9585 20.284 5.71602 20.0415 5.41686 20.0415ZM4.87518 22.2081H3.79186V21.1248H4.87518V22.2081Z" fill="#252525"/>
<path d="M10.8338 20.042H7.04199V21.1253H10.8338V20.042Z" fill="#252525"/>
<path d="M9.20868 22.208H7.04199V23.2913H9.20868V22.208Z" fill="#252525"/>
<path d="M18.9583 0H8.125C7.22754 0 6.5 0.727543 6.5 1.625V12.4583H7.58332V1.625C7.58332 1.32585 7.82585 1.08332 8.125 1.08332H18.9583C19.2575 1.08332 19.5 1.32585 19.5 1.625V12.4583H20.5833V1.625C20.5833 0.727543 19.8558 0 18.9583 0Z" fill="#252525"/>
<path d="M15.1668 2.1665V4.87482H11.9168V2.1665H10.8335V5.4165C10.8335 5.71566 11.076 5.95819 11.3752 5.95819H15.7085C16.0076 5.95819 16.2502 5.71566 16.2502 5.4165V2.1665H15.1668Z" fill="#252525"/>
<path d="M11.9169 8.125H9.75018C9.45103 8.125 9.2085 8.36753 9.2085 8.66668V10.8334H10.2918V9.20837H11.3752V10.8334H12.4585V8.66668C12.4585 8.36753 12.216 8.125 11.9169 8.125Z" fill="#252525"/>
<path d="M17.3338 8.125H13.542V9.20832H17.3338V8.125Z" fill="#252525"/>
<path d="M24.3748 11.9165H15.1665V12.9998H24.3748C24.674 12.9998 24.9165 13.2424 24.9165 13.5415V24.3748C24.9165 24.674 24.674 24.9165 24.3748 24.9165H15.1665V25.9998H24.3748C25.2723 25.9998 25.9998 25.2723 25.9998 24.3748V13.5415C25.9998 12.644 25.2723 11.9165 24.3748 11.9165Z" fill="#252525"/>
<path d="M20.5833 14.0835V16.7918H17.3333V14.0835H16.25V17.3335C16.25 17.6326 16.4925 17.8752 16.7917 17.8752H21.125C21.4242 17.8752 21.6667 17.6326 21.6667 17.3335V14.0835H20.5833Z" fill="#252525"/>
<path d="M17.3332 20.0415H15.1665V21.1248H16.7915V22.2081H15.1665V23.2915H17.3332C17.6323 23.2915 17.8749 23.0489 17.8749 22.7498V20.5831C17.8749 20.284 17.6323 20.0415 17.3332 20.0415Z" fill="#252525"/>
<path d="M22.7498 20.042H18.958V21.1253H22.7498V20.042Z" fill="#252525"/>
<path d="M21.1247 22.208H18.958V23.2913H21.1247V22.208Z" fill="#252525"/>
</svg>
