<svg width="26" height="18" viewBox="0 0 26 18" fill="none" xmlns="http://www.w3.org/2000/svg">
<path d="M22.8462 0H2.47253C1.10918 0 0 1.10918 0 2.47253V15.5275C0 16.8908 1.10918 18 2.47253 18H10.1374C10.4105 18 10.6319 17.7786 10.6319 17.5055C10.6319 17.2324 10.4105 17.011 10.1374 17.011H2.47253C1.65452 17.011 0.989011 16.3455 0.989011 15.5275V9.49451H11.7365C11.8158 9.89585 12.0547 10.2495 12.409 10.4742C12.5244 10.5473 12.6471 10.6029 12.7736 10.6421L11.903 12.1393C11.8023 12.3125 11.816 12.5293 11.9378 12.6884C12.0595 12.8475 12.2652 12.9174 12.4587 12.8655L13.6428 12.5477L13.9596 13.7321C14.0113 13.9253 14.1744 14.0684 14.3727 14.0945C14.3944 14.0974 14.416 14.0988 14.4375 14.0988C14.6125 14.0988 14.7766 14.0058 14.8656 13.8515L17.1202 9.94653L19.9447 14.9684C20.0331 15.1254 20.1986 15.2205 20.3756 15.2205C20.3962 15.2205 20.4168 15.2192 20.4376 15.2166C20.6371 15.1915 20.8015 15.048 20.8534 14.8538L21.1703 13.6694L22.3545 13.9872C22.547 14.0388 22.7518 13.9699 22.8738 13.8121C22.9958 13.6544 23.0111 13.4389 22.9128 13.2655L21.4586 10.7029C21.5045 10.7072 21.5506 10.7098 21.5966 10.7098C21.8777 10.7098 22.1573 10.6306 22.4042 10.4741C22.7585 10.2495 22.9974 9.8958 23.0766 9.49446H24.3297V15.5274C24.3297 16.3454 23.6642 17.0109 22.8462 17.0109H17.9011V14.3406C17.9011 14.0675 17.6797 13.8461 17.4066 13.8461C17.1335 13.8461 16.9121 14.0675 16.9121 14.3406V17.0109H14.3424C14.0693 17.0109 13.8479 17.2323 13.8479 17.5054C13.8479 17.7786 14.0693 18 14.3424 18H22.8462C24.2095 18 25.3187 16.8908 25.3187 15.5274V2.47253C25.3187 1.10918 24.2095 0 22.8462 0ZM12.9386 9.6388C12.7847 9.54129 12.6965 9.38092 12.6965 9.19874V5.73409H12.6965C12.6965 5.55191 12.7847 5.39154 12.9385 5.29403C13.0924 5.19646 13.2751 5.18514 13.4398 5.26287L15.8661 6.4076C15.8062 6.57005 15.7734 6.7455 15.7734 6.92847V7.98626C15.7734 8.17507 15.8086 8.35571 15.8721 8.52241L13.4399 9.66996C13.2751 9.74759 13.0925 9.73632 12.9386 9.6388ZM14.6064 12.3225L14.4704 11.814C14.4364 11.6872 14.3536 11.5791 14.2399 11.5135C14.1263 11.4479 13.9912 11.4301 13.8645 11.4642L13.3611 11.5993L14.001 10.4988L16.2802 9.42344L14.6064 12.3225ZM13.8619 4.36836C13.3914 4.14643 12.8483 4.1802 12.4091 4.45866C11.9698 4.73712 11.7075 5.21392 11.7075 5.73404V8.5055H0.989011V2.47253C0.989011 1.65452 1.65452 0.989011 2.47253 0.989011H16.9121V5.22529C16.9121 5.30708 16.9323 5.38398 16.9674 5.45192C16.8089 5.48585 16.6596 5.54479 16.5237 5.62426L13.8619 4.36836ZM17.5373 8.50727H17.2835C16.9962 8.50727 16.7624 8.27352 16.7624 7.98626V6.92842C16.7624 6.64111 16.9962 6.40741 17.2835 6.40741H17.5373C17.8246 6.40741 18.0584 6.64111 18.0584 6.92842V7.98626C18.0584 8.27357 17.8246 8.50727 17.5373 8.50727ZM21.4692 12.7256L20.9487 12.5859C20.8219 12.5518 20.6869 12.5696 20.5733 12.6352C20.4596 12.7008 20.3767 12.8089 20.3428 12.9357L20.2117 13.4256L17.9665 9.43378C18.0754 9.40144 18.1792 9.35713 18.2763 9.30234L19.9838 10.1079L21.4692 12.7256ZM21.8747 9.63885C21.7208 9.73642 21.5381 9.74774 21.3734 9.67001L18.9475 8.52547C19.0118 8.35789 19.0474 8.1762 19.0474 7.98626V6.92842C19.0474 6.74431 19.0142 6.56782 18.9536 6.40454L21.3734 5.26287C21.5381 5.18519 21.7208 5.19651 21.8747 5.29403C22.0285 5.39154 22.1167 5.55196 22.1167 5.73409V9.19879C22.1167 9.38092 22.0285 9.54134 21.8747 9.63885ZM24.3297 8.5055H23.1057V5.73409C23.1057 5.21397 22.8434 4.73716 22.4042 4.45871C21.9648 4.18025 21.4217 4.14653 20.9514 4.36841L18.2937 5.62228C18.1568 5.54267 18.0064 5.48372 17.8466 5.45034C17.8812 5.38279 17.9011 5.30644 17.9011 5.22529V0.989011H22.8462C23.6642 0.989011 24.3297 1.65452 24.3297 2.47253V8.5055Z" fill="#00A2A9"/>
</svg>
