<svg width="24" height="24" viewBox="0 0 24 24" fill="none" xmlns="http://www.w3.org/2000/svg">
<g clip-path="url(#clip0)">
<path d="M6.54945 5.28186L6.56397 5.41568H6.69857H22.7618C22.9834 5.41568 23.1934 5.51583 23.3334 5.68861C23.4734 5.86141 23.5284 6.08841 23.4831 6.30658L23.4831 6.30659L22.8264 9.46523C22.7538 9.81435 22.4472 10.054 22.106 10.054C22.0563 10.054 22.0057 10.0489 21.9549 10.0383L21.9548 10.0382C21.5568 9.95496 21.3006 9.56335 21.3839 9.16292L21.8178 7.07573L21.8553 6.89519H21.6709H6.89164H6.72448L6.74251 7.06137L7.53405 14.3574L7.54856 14.4912H7.68317H18.3424C19.2654 14.4912 20.1421 13.8771 20.5363 12.976C20.7 12.6018 21.1347 12.4321 21.5069 12.596C21.8794 12.7601 22.0493 13.1965 21.8855 13.571C21.2462 15.0322 19.8533 15.9707 18.3424 15.9707H7.02067C6.44837 15.9707 5.98385 16.4375 5.98385 17.0105L5.98362 17.0291L5.98345 17.0291L5.98362 17.0363L5.98385 17.055C5.98385 17.6279 6.44837 18.0947 7.02067 18.0947H18.6381C19.9974 18.0947 21.1042 19.2046 21.1042 20.5695C21.1042 21.9344 19.9974 23.0443 18.6381 23.0443C17.2789 23.0443 16.172 21.9344 16.172 20.5695C16.172 20.2905 16.2182 20.0225 16.3031 19.7725L16.3705 19.5742H16.1611H12.3355H12.1261L12.1935 19.7725C12.2785 20.0225 12.3246 20.2905 12.3246 20.5695C12.3246 21.9344 11.2177 23.0443 9.85851 23.0443C8.49927 23.0443 7.39238 21.9344 7.39238 20.5695C7.39238 20.2905 7.43856 20.0225 7.52354 19.7725L7.59094 19.5742H7.38152H7.02067C5.63699 19.5742 4.5102 18.4444 4.5102 17.055L4.51042 17.0363L4.51059 17.0363L4.51042 17.0291L4.5102 17.0105C4.5102 15.9913 5.11665 15.1111 5.98694 14.7148L6.08559 14.6699L6.0739 14.5621L5.01978 4.84591L5.01982 4.8459L5.01933 4.84219C4.80593 3.24755 3.43834 2.04602 1.83275 2.04602C1.42626 2.04602 1.09592 1.7153 1.09592 1.30626C1.09592 0.897224 1.42626 0.566504 1.83275 0.566504C4.17707 0.566504 6.17615 2.32552 6.48159 4.65842L6.48375 4.67631L6.54945 5.28186ZM19.6306 20.5695C19.6306 20.021 19.1859 19.5742 18.6381 19.5742C18.0902 19.5742 17.6456 20.021 17.6456 20.5695C17.6456 21.118 18.0902 21.5648 18.6381 21.5648C19.1859 21.5648 19.6306 21.118 19.6306 20.5695ZM10.851 20.5695C10.851 20.0211 10.4064 19.5742 9.85851 19.5742C9.31064 19.5742 8.86602 20.021 8.86602 20.5695C8.86602 21.118 9.31064 21.5648 9.85851 21.5648C10.4064 21.5648 10.851 21.118 10.851 20.5695Z" fill="#434343" stroke="white" stroke-width="0.3"/>
</g>
<defs>
<clipPath id="clip0">
<rect width="22.7027" height="22.7778" fill="white" transform="translate(0.945923 0.416504)"/>
</clipPath>
</defs>
</svg>
