<svg width="14" height="14" viewBox="0 0 14 14" fill="none" xmlns="http://www.w3.org/2000/svg">
<g clip-path="url(#clip0)">
<path d="M7.36987 4.51377C7.14954 4.50277 6.95577 4.65901 6.91942 4.87671C6.75607 5.8549 5.91609 6.56484 4.92188 6.56484C3.90459 6.56484 3.08166 5.82212 2.92438 4.87695L2.92438 4.87694L7.36862 4.53873M7.36987 4.51377L7.36862 4.53873M7.36987 4.51377C7.36983 4.51376 7.3698 4.51376 7.36977 4.51376L7.36862 4.53873M7.36987 4.51377C7.58136 4.52344 7.76797 4.34966 7.76797 4.12891C7.76797 3.91655 7.59517 3.74375 7.38281 3.74375C7.14249 3.74375 6.94766 3.54892 6.94766 3.30859V3.139M7.36862 4.53873C7.5944 4.54913 7.79297 4.36395 7.79297 4.12891C7.79297 3.90275 7.60897 3.71875 7.38281 3.71875C7.1563 3.71875 6.97266 3.53511 6.97266 3.30859V3.12307M6.94766 3.139C6.95242 3.14117 6.95717 3.14338 6.96189 3.14563L6.97266 3.12307M6.94766 3.139V3.12307H6.97266M6.94766 3.139C6.70573 3.02907 6.40704 3.0295 6.06678 3.09012C5.73515 3.14921 5.36803 3.26467 4.98104 3.38637C4.9634 3.39192 4.94572 3.39748 4.928 3.40305C4.11898 3.65729 3.22744 3.92894 2.41955 3.74606C2.22658 3.76676 2.07578 3.93057 2.07578 4.12891C2.07578 4.34917 2.26185 4.52348 2.4739 4.51376C2.47393 4.51376 2.47395 4.51376 2.47398 4.51376L2.47513 4.53873L6.97266 3.12307M13.5898 8.20547H8.99175C8.47179 7.69971 7.91227 7.50174 7.45869 7.42676C7.23095 7.38912 7.03001 7.38248 6.8744 7.38337C6.81509 7.3837 6.76219 7.38513 6.71715 7.38635C6.70319 7.38673 6.68999 7.38709 6.67758 7.38739C6.63891 7.38832 6.609 7.38861 6.5875 7.38747V6.90786C7.14047 6.51907 7.52634 5.96016 7.7046 5.34258C8.24143 5.2001 8.63828 4.71003 8.63828 4.12891C8.63828 3.58949 8.2963 3.12879 7.81797 2.95146V2.87109C7.81797 1.27417 6.5188 -0.025 4.92188 -0.025C3.32495 -0.025 2.02578 1.27417 2.02578 2.87109V2.95146C1.54745 3.12879 1.20547 3.58949 1.20547 4.12891C1.20547 4.70985 1.60203 5.19978 2.13859 5.34243C2.32516 5.99383 2.73166 6.53881 3.25625 6.90914V7.38516H2.87109C1.27417 7.38516 -0.025 8.68432 -0.025 10.2812V13.5898C-0.025 13.8302 0.169833 14.025 0.410156 14.025C0.650479 14.025 0.845312 13.8302 0.845312 13.5898V10.2812C0.845312 9.16426 1.7541 8.25547 2.87109 8.25547H3.31393C3.50573 8.96352 4.15388 9.48594 4.92188 9.48594C5.68963 9.48594 6.33762 8.96384 6.52964 8.25613C6.61519 8.25873 6.69699 8.25748 6.77824 8.25624C7.01073 8.25268 7.23866 8.24919 7.5367 8.33628C7.45991 8.41471 7.41247 8.52213 7.41247 8.64062V13.5898C7.41247 13.8302 7.60731 14.025 7.84763 14.025H13.5898C13.8301 14.025 14.025 13.8302 14.025 13.5898V8.64062C14.025 8.4003 13.8302 8.20547 13.5898 8.20547ZM4.92188 0.845312C5.80505 0.845312 6.55772 1.41367 6.83421 2.2038C6.21319 2.1085 5.52252 2.30438 4.84451 2.51587C4.78949 2.53303 4.73457 2.55029 4.67976 2.56751C4.05016 2.76535 3.43689 2.95807 2.89609 2.93387V2.87109C2.89609 1.7541 3.80488 0.845312 4.92188 0.845312ZM4.92188 8.61563C4.48336 8.61563 4.12656 8.25883 4.12656 7.82031V7.32507C4.63792 7.47022 5.18853 7.47412 5.71719 7.32308V7.82031C5.71719 8.25883 5.36039 8.61563 4.92188 8.61563ZM10.3336 9.07578H11.1039V9.84609H10.3336V9.07578ZM13.1547 13.1547H8.28281V9.07578H9.46328V10.2812C9.46328 10.5216 9.65811 10.7164 9.89844 10.7164H11.5391C11.7794 10.7164 11.9742 10.5216 11.9742 10.2812V9.07578H13.1547V13.1547Z" fill="#252525" stroke="#252525" stroke-width="0.05"/>
<path d="M2.05078 10.6664C1.81046 10.6664 1.61562 10.8612 1.61562 11.1016V13.5898C1.61562 13.8302 1.81046 14.025 2.05078 14.025C2.2911 14.025 2.48594 13.8302 2.48594 13.5898V11.1016C2.48594 10.8612 2.2911 10.6664 2.05078 10.6664Z" fill="#252525" stroke="#252525" stroke-width="0.05"/>
</g>
<defs>
<clipPath id="clip0">
<rect width="14" height="14" fill="white"/>
</clipPath>
</defs>
</svg>
