<svg width="14" height="14" viewBox="0 0 14 14" fill="none" xmlns="http://www.w3.org/2000/svg">
<path d="M13.9995 7.43459C13.9894 7.0928 13.845 6.76876 13.5975 6.53276L13.597 6.53218L8.51905 1.58551C8.44326 1.50965 8.35322 1.44952 8.25411 1.40858C8.155 1.36763 8.04878 1.34668 7.94155 1.34693H7.03271L12.9897 7.16276C13.0728 7.24138 13.1216 7.3496 13.1254 7.46394C13.1292 7.57828 13.0878 7.68951 13.0101 7.77351L8.73371 12.5137L9.33396 13.0976L13.6565 8.36326C13.8891 8.11033 14.0122 7.77564 13.9989 7.43226V7.43459H13.9995Z" fill="#333333"/>
<path d="M11.6731 7.74266C11.7152 7.6278 11.7241 7.50337 11.6987 7.38367C11.6734 7.26398 11.6147 7.15387 11.5296 7.066L11.5214 7.05666L6.13083 1.57566C6.05005 1.49439 5.95397 1.42992 5.84815 1.38597C5.74232 1.34202 5.62884 1.31945 5.51425 1.31958H1.64617C1.3258 1.31989 1.01864 1.44725 0.792057 1.67373C0.565472 1.9002 0.437963 2.2073 0.4375 2.52766V6.38583C0.438083 6.63666 0.543083 6.86241 0.711667 7.02225L0.71225 7.02283L6.46508 12.4992C6.58175 12.6094 6.73925 12.6771 6.9125 12.6771H6.91367L6.93817 12.6765C7.00467 12.6742 7.06767 12.6619 7.12717 12.6421L7.1225 12.6432C7.2276 12.6084 7.322 12.5471 7.39667 12.4653L7.39725 12.4647L11.5383 7.96375C11.5963 7.90091 11.6415 7.82741 11.6713 7.74733L11.6731 7.74266ZM6.90433 11.7087L1.3125 6.38641V2.52825C1.3125 2.34391 1.46183 2.19516 1.64617 2.19458H5.5125L10.7543 7.5245L6.90433 11.7087Z" fill="#333333"/>
<path d="M3.82842 3.0625C3.54714 3.0625 3.27218 3.14591 3.0383 3.30218C2.80443 3.45845 2.62215 3.68056 2.51451 3.94043C2.40687 4.20029 2.3787 4.48624 2.43358 4.76212C2.48845 5.03799 2.6239 5.2914 2.82279 5.49029C3.02169 5.68918 3.27509 5.82463 3.55097 5.87951C3.82684 5.93438 4.11279 5.90622 4.37266 5.79858C4.63252 5.69094 4.85464 5.50865 5.01091 5.27478C5.16718 5.04091 5.25058 4.76594 5.25058 4.48467C5.25012 4.10773 5.10022 3.74635 4.83374 3.47976C4.56725 3.21317 4.20594 3.06312 3.829 3.0625H3.82842ZM3.82842 5.03125C3.7202 5.03125 3.61441 4.99916 3.52443 4.93904C3.43445 4.87891 3.36432 4.79346 3.3229 4.69347C3.28149 4.59349 3.27065 4.48348 3.29176 4.37734C3.31288 4.2712 3.36499 4.1737 3.44151 4.09718C3.51803 4.02066 3.61553 3.96854 3.72167 3.94743C3.82781 3.92632 3.93783 3.93715 4.03781 3.97857C4.13779 4.01998 4.22325 4.09011 4.28337 4.18009C4.34349 4.27007 4.37558 4.37586 4.37558 4.48408C4.37528 4.62901 4.31761 4.76791 4.21519 4.87044C4.11277 4.97297 3.97392 5.03079 3.829 5.03125H3.82842Z" fill="#333333"/>
</svg>
