<svg width="14" height="14" viewBox="0 0 14 14" fill="none" xmlns="http://www.w3.org/2000/svg">
<path d="M13.3618 6.06083C13.3009 5.98222 13.2229 5.91859 13.1336 5.8748C13.0443 5.83102 12.9462 5.80826 12.8468 5.80825H11.0343V4.375C11.0342 4.2075 10.9676 4.0469 10.8491 3.92846C10.7307 3.81001 10.5701 3.7434 10.4026 3.74325H6.67567L6.18975 2.57658C6.14189 2.46155 6.06109 2.36324 5.9575 2.29401C5.85392 2.22478 5.73217 2.18772 5.60758 2.1875H1.06925C0.901747 2.18765 0.741149 2.25426 0.622706 2.37271C0.504263 2.49115 0.437654 2.65175 0.4375 2.81925V12.7843H11.9414L13.4814 6.62317C13.5063 6.52621 13.5083 6.42481 13.4873 6.32694C13.4664 6.22906 13.423 6.13738 13.3607 6.05908L13.3618 6.06025V6.06083ZM1.3125 11.9099V3.0625H5.44425L6.09233 4.61825H10.1593V5.80825H3.76192H3.76133C3.45567 5.80825 3.199 6.01767 3.12667 6.30058L3.1255 6.30525L1.72433 11.9099H1.3125ZM11.2578 11.9099H2.62617L3.93283 6.68325H12.5644L11.2578 11.9099Z" fill="black"/>
</svg>
