<svg width="14" height="14" viewBox="0 0 14 14" fill="none" xmlns="http://www.w3.org/2000/svg">
<path d="M11.3203 4.06738C11.4713 4.06738 11.5938 3.94496 11.5938 3.79395V0.820312C11.5938 0.367992 11.2258 0 10.7734 0H0.820312C0.367992 0 0 0.367992 0 0.820312V13.1797C0 13.632 0.367992 14 0.820312 14H10.7734C11.2258 14 11.5938 13.632 11.5938 13.1797V11.1652C11.5938 11.0142 11.4713 10.8918 11.3203 10.8918C11.1693 10.8918 11.0469 11.0142 11.0469 11.1652V13.1797C11.0469 13.3305 10.9242 13.4531 10.7734 13.4531H0.820312C0.669539 13.4531 0.546875 13.3305 0.546875 13.1797V0.820312C0.546875 0.669539 0.669539 0.546875 0.820312 0.546875H10.7734C10.9242 0.546875 11.0469 0.669539 11.0469 0.820312V3.79395C11.0469 3.94496 11.1693 4.06738 11.3203 4.06738Z" fill="#434343"/>
<path d="M5.79688 1.47656C4.40975 1.47656 3.28125 2.60507 3.28125 3.99219C3.28125 4.71179 3.58504 5.3617 4.07099 5.82064C4.0801 5.83037 4.08978 5.83959 4.10036 5.84798C4.548 6.25756 5.14374 6.50778 5.79685 6.50778C6.44995 6.50778 7.04569 6.25754 7.49334 5.84798C7.50392 5.83959 7.5136 5.83034 7.5227 5.82064C8.00871 5.3617 8.3125 4.71179 8.3125 3.99219C8.3125 2.60507 7.184 1.47656 5.79688 1.47656ZM5.79688 5.96094C5.35038 5.96094 4.93831 5.81131 4.60767 5.55986C4.84799 5.13371 5.29646 4.86719 5.79688 4.86719C6.29729 4.86719 6.74576 5.13371 6.98608 5.55986C6.65541 5.81131 6.24337 5.96094 5.79688 5.96094ZM5.35938 3.88281V3.70508C5.35938 3.46385 5.55565 3.26758 5.79688 3.26758C6.0381 3.26758 6.23438 3.46385 6.23438 3.70508V3.88281C6.23438 4.12404 6.0381 4.32031 5.79688 4.32031C5.55565 4.32031 5.35938 4.12404 5.35938 3.88281ZM7.38117 5.1593C7.17951 4.86021 6.90003 4.6276 6.57554 4.48399C6.70433 4.31755 6.78125 4.10905 6.78125 3.88281V3.70508C6.78125 3.16228 6.33968 2.7207 5.79688 2.7207C5.25407 2.7207 4.8125 3.16228 4.8125 3.70508V3.88281C4.8125 4.10905 4.88942 4.31755 5.01821 4.48399C4.69372 4.6276 4.41424 4.86021 4.21258 5.1593C3.97116 4.83246 3.82812 4.42879 3.82812 3.99219C3.82812 2.90661 4.7113 2.02344 5.79688 2.02344C6.88245 2.02344 7.76562 2.90661 7.76562 3.99219C7.76562 4.42879 7.62259 4.83246 7.38117 5.1593Z" fill="#434343"/>
<path d="M7.27344 11.9766H5.79688C5.64588 11.9766 5.52344 12.099 5.52344 12.25C5.52344 12.401 5.64588 12.5234 5.79688 12.5234H7.27344C7.42443 12.5234 7.54687 12.401 7.54687 12.25C7.54687 12.099 7.42443 11.9766 7.27344 11.9766Z" fill="#434343"/>
<path d="M7.27344 10.4453H3.39062C3.23963 10.4453 3.11719 10.5677 3.11719 10.7188C3.11719 10.8698 3.23963 10.9922 3.39062 10.9922H7.27344C7.42443 10.9922 7.54687 10.8698 7.54687 10.7188C7.54687 10.5677 7.42443 10.4453 7.27344 10.4453Z" fill="#434343"/>
<path d="M7.27344 8.91406H3.39062C3.23963 8.91406 3.11719 9.03648 3.11719 9.1875C3.11719 9.33852 3.23963 9.46094 3.39062 9.46094H7.27344C7.42443 9.46094 7.54687 9.33852 7.54687 9.1875C7.54687 9.03648 7.42443 8.91406 7.27344 8.91406Z" fill="#434343"/>
<path d="M2.41622 7.46293C2.36539 7.41207 2.29484 7.38281 2.22266 7.38281C2.15071 7.38281 2.08017 7.41207 2.02934 7.46293C1.97848 7.51379 1.94922 7.58434 1.94922 7.65625C1.94922 7.72816 1.97845 7.79871 2.02934 7.84957C2.08047 7.90043 2.15071 7.92969 2.22266 7.92969C2.29484 7.92969 2.36512 7.90043 2.41622 7.84957C2.46708 7.79871 2.49637 7.72816 2.49637 7.65625C2.49637 7.58434 2.46711 7.51379 2.41622 7.46293Z" fill="#434343"/>
<path d="M2.41622 8.99418C2.36512 8.94332 2.29484 8.91406 2.22266 8.91406C2.15071 8.91406 2.08047 8.94332 2.02934 8.99418C1.97848 9.04504 1.94922 9.11559 1.94922 9.1875C1.94922 9.25941 1.97845 9.32996 2.02934 9.38082C2.08047 9.43168 2.15071 9.46094 2.22266 9.46094C2.29484 9.46094 2.36512 9.43168 2.41622 9.38082C2.46708 9.32996 2.49637 9.25941 2.49637 9.1875C2.49637 9.11559 2.46711 9.04504 2.41622 8.99418Z" fill="#434343"/>
<path d="M2.41622 10.5254C2.36512 10.4746 2.29484 10.4453 2.22266 10.4453C2.15071 10.4453 2.08047 10.4746 2.02934 10.5254C1.97848 10.5763 1.94922 10.6468 1.94922 10.7188C1.94922 10.7907 1.97845 10.8612 2.02934 10.9121C2.08017 10.9629 2.15071 10.9922 2.22266 10.9922C2.29484 10.9922 2.36539 10.9629 2.41622 10.9121C2.46708 10.8612 2.49637 10.7907 2.49637 10.7188C2.49637 10.6468 2.46711 10.5763 2.41622 10.5254Z" fill="#434343"/>
<path d="M7.27344 7.38281H3.39062C3.23963 7.38281 3.11719 7.50523 3.11719 7.65625C3.11719 7.80727 3.23963 7.92969 3.39062 7.92969H7.27344C7.42443 7.92969 7.54687 7.80727 7.54687 7.65625C7.54687 7.50523 7.42443 7.38281 7.27344 7.38281Z" fill="#434343"/>
<path d="M13.4258 3.56341C13.1602 3.41004 12.8507 3.36929 12.5544 3.44867C12.2581 3.52808 12.0104 3.71812 11.857 3.98376L8.41605 9.94369C8.39721 9.97636 8.38529 10.0126 8.38111 10.0501L8.1389 12.2196C8.12686 12.3276 8.17986 12.4325 8.27392 12.4868C8.31638 12.5113 8.36355 12.5234 8.41061 12.5234C8.46781 12.5234 8.5248 12.5055 8.57279 12.4702L10.3306 11.1756C10.3609 11.1532 10.3864 11.1248 10.4052 11.0922L13.8462 5.13223C14.1628 4.58382 13.9742 3.88005 13.4258 3.56341ZM8.75172 11.6592L8.87822 10.5263L9.6696 10.9832L8.75172 11.6592ZM10.0683 10.5819L9.02639 9.98033L11.7877 5.19763L12.8296 5.7992L10.0683 10.5819ZM13.3726 4.85876L13.103 5.3256L12.0611 4.72404L12.3306 4.2572C12.411 4.11805 12.5407 4.01852 12.6959 3.97693C12.8512 3.93531 13.0132 3.95669 13.1524 4.03703C13.2915 4.11737 13.3911 4.24708 13.4326 4.40229C13.4742 4.55749 13.4529 4.71961 13.3726 4.85876Z" fill="#434343"/>
</svg>
