<svg width="168" height="29" viewBox="0 0 168 29" fill="none" xmlns="http://www.w3.org/2000/svg">
<path fill-rule="evenodd" clip-rule="evenodd" d="M30.8332 2.20947H164.788C166.715 2.20947 168 3.82852 168 5.44757V24.2285C168 26.1714 166.394 27.4666 164.788 27.4666H30.8332C30.1907 27.4666 29.5482 27.1428 28.9058 26.819C31.1544 23.9047 32.7606 19.6952 32.7606 15.1619C32.7606 10.6285 31.4756 6.419 29.227 2.85709C29.5482 2.53328 30.1907 2.20947 30.8332 2.20947Z" fill="#0099A2"/>
<path d="M152.902 15.162C152.902 14.1906 153.223 13.2191 154.508 13.2191V17.4286C153.545 16.781 152.902 16.1334 152.902 15.162ZM157.078 12.8953C158.042 13.2191 158.363 14.1906 158.363 15.162C158.363 16.1334 157.721 16.781 156.757 17.1048V12.8953H157.078ZM154.508 10.6287C151.617 10.9525 150.332 12.8953 150.332 15.162C150.332 17.1048 151.617 19.0477 154.508 19.6953V20.6667H157.078V19.3715C159.648 19.0477 161.254 17.1048 161.254 14.8382C161.254 12.8953 159.969 10.9525 157.078 10.3048V9.65723H154.508V10.6287ZM144.229 14.8382V12.2477H145.835C147.441 12.2477 147.441 14.8382 145.835 14.8382H144.229ZM141.659 9.65723V20.3429H144.229V17.1048H145.835C150.654 17.1048 150.654 9.65723 145.835 9.65723H141.659ZM139.41 17.7525C138.768 17.7525 138.125 18.4001 138.125 19.0477C138.125 19.6953 138.768 20.3429 139.41 20.3429C140.374 20.3429 140.695 19.6953 140.695 19.0477C141.017 18.4001 140.374 17.7525 139.41 17.7525ZM132.343 13.8667L133.307 16.1334V16.4572H131.701V16.1334L132.343 13.8667ZM134.592 20.3429H137.483L132.986 9.65723H131.058L126.882 20.3429H129.773L130.416 18.7239H133.949L134.592 20.3429ZM126.24 9.65723H123.027L120.136 13.8667V9.65723H117.566V20.3429H120.136V16.1334L123.349 20.3429H126.561L122.385 15.162L126.24 9.65723ZM111.784 16.4572H116.282V13.8667H112.105V12.2477H116.282V9.65723H109.214V20.3429H116.282V17.7525H111.784V16.4572ZM105.36 20.3429V12.2477H108.251V9.65723H99.8986V12.2477H102.79V20.3429H105.36ZM90.904 9.65723V20.3429H93.4739V12.2477H96.365V20.3429H98.9349V9.65723H90.904ZM85.1218 13.8667L86.0855 16.1334V16.4572H84.1581V16.1334L85.1218 13.8667ZM87.3704 20.3429H90.2616L85.7643 9.65723H84.1581L79.9821 20.3429H82.8732L83.5156 18.7239H87.0492L87.3704 20.3429ZM76.7697 14.5144H75.1636C73.5574 14.5144 73.5574 12.2477 75.1636 12.2477H76.7697V14.5144ZM76.7697 16.781V20.3429H79.3396V9.65723H75.1636C70.9875 9.65723 70.345 14.8382 73.5574 16.4572L71.3087 19.6953V20.3429H74.1998L76.4485 16.781H76.7697ZM61.993 15.162C61.993 11.2763 67.7752 11.2763 67.7752 15.162C67.7752 19.0477 61.993 19.0477 61.993 15.162ZM59.4231 15.162C59.4231 18.0763 61.6717 20.6667 64.8841 20.6667C67.7752 20.6667 70.345 18.4001 70.345 15.162C70.345 11.9239 67.7752 9.65723 64.8841 9.65723C61.6717 9.65723 59.4231 11.9239 59.4231 15.162ZM52.6772 16.1334H54.9258C55.8895 16.1334 55.8895 18.0763 54.9258 18.0763H52.6772V16.1334ZM50.1073 9.65723V20.3429H54.9258C57.1744 20.3429 58.4594 18.7239 58.4594 16.781C58.4594 15.8096 58.1381 14.8382 56.8532 14.5144C58.7806 13.2191 57.4957 9.65723 54.9258 9.65723H50.1073ZM52.6772 12.2477H54.6046C55.5683 12.2477 55.5683 13.8667 54.6046 13.8667H52.6772V12.2477ZM46.2525 20.3429V12.2477H49.1436V9.65723H40.7915V12.2477H43.6826V20.3429H46.2525Z" fill="white"/>
<path fill-rule="evenodd" clip-rule="evenodd" d="M0.204102 18.1973V11.0937C0.204102 10.0413 0.993016 9.51515 1.78193 9.51515H8.88216V2.41158C8.88216 1.62229 9.67107 0.833008 10.723 0.833008H17.5602C18.6121 0.833008 19.138 1.62229 19.138 2.41158V9.51515H26.2383C27.2902 9.51515 27.8161 10.3044 27.8161 11.0937V17.9342V18.1973C26.5012 17.6711 25.1864 17.1449 23.8715 16.6187L17.5602 14.2509C17.2972 14.2509 17.0343 13.9878 16.7713 13.9878L15.9824 13.7247C13.0897 12.1461 12.5638 12.1461 10.46 9.51515C10.197 10.5675 10.46 12.6723 10.9859 13.7247C12.5638 17.6711 17.0343 18.9866 20.4529 19.7759H19.138V20.039C17.2972 19.7759 14.6675 18.9866 13.6156 17.6711C13.3527 18.1973 13.6156 18.7235 13.8786 19.7759C14.1416 20.8282 15.1935 21.8806 15.7194 22.1437C16.5083 22.6699 17.2972 22.933 18.0862 23.1961C18.3491 23.1961 18.6121 23.1961 19.138 23.4592V24.2485C18.0862 23.9854 16.7713 23.7223 15.9824 23.4592C16.2454 24.7747 17.5602 25.8271 19.401 26.3532V26.8794C19.401 27.9318 18.6121 28.458 17.8232 28.458H10.723C9.67107 28.458 9.14513 27.6687 9.14513 26.8794V19.7759H1.78193C0.993016 19.7759 0.204102 18.9866 0.204102 18.1973Z" fill="#F4333E"/>
</svg>
