<svg width="30" height="29" viewBox="0 0 30 29" fill="none" xmlns="http://www.w3.org/2000/svg">
<g clip-path="url(#clip0_1460_69377)">
<path d="M0.113403 12.7541C0.259049 12.6367 0.386781 12.477 0.552677 12.4064C9.96669 8.43403 19.3838 4.46937 28.8002 0.503181C28.9427 0.443296 29.0868 0.383411 29.2223 0.310475C29.4225 0.20299 29.6102 0.205294 29.7916 0.343489C29.9793 0.48629 29.9973 0.685137 29.9459 0.88859C29.4373 2.91084 28.9201 4.93156 28.4131 6.95381C26.7915 13.4221 25.1723 19.8911 23.5522 26.3594C23.4128 26.9176 23.169 27.0312 22.6503 26.7694C20.9314 25.9034 19.2109 25.0404 17.4974 24.1644C17.2871 24.0569 17.168 24.0792 16.9974 24.2358C15.3486 25.7498 13.6904 27.2539 12.0353 28.7617C11.67 29.0949 11.2923 28.969 11.1607 28.47C10.3008 25.2139 9.4433 21.9572 8.5741 18.7027C8.53438 18.5553 8.41755 18.3917 8.28904 18.3096C5.70324 16.6658 3.11043 15.0336 0.521523 13.3945C0.371204 13.2993 0.248924 13.1603 0.113403 13.0413C0.113403 12.9461 0.113403 12.8501 0.113403 12.7541ZM14.6024 21.6562C17.3284 23.0351 20.0155 24.394 22.7321 25.7683C24.631 18.1875 26.5197 10.6436 28.4092 3.09894C28.3874 3.09126 28.3656 3.08282 28.3438 3.07514C23.7703 9.25859 19.1977 15.442 14.6024 21.6562ZM26.6957 2.45787C26.6863 2.44251 26.6762 2.42716 26.6669 2.4118C18.3269 5.92426 9.98616 9.43671 1.61503 12.9614C1.6789 13.0144 1.71083 13.0474 1.749 13.0712C4.07076 14.5369 6.3933 16.0002 8.71195 17.4697C8.86539 17.5672 8.94483 17.5157 9.05854 17.419C10.131 16.5046 11.2082 15.5956 12.283 14.6843C16.5753 11.0444 20.8675 7.40448 25.1598 3.76458C25.6731 3.3308 26.184 2.89395 26.6957 2.45787ZM26.4683 3.9949C26.4511 3.98185 26.4348 3.96803 26.4176 3.95498C26.3655 3.99644 26.3117 4.03636 26.2611 4.08012C25.0913 5.07359 23.9222 6.06859 22.7516 7.06052C18.3845 10.7618 14.0175 14.4639 9.64658 18.1606C9.4947 18.2889 9.47679 18.4048 9.52352 18.5806C10.0874 20.698 10.6443 22.8178 11.2035 24.9368C11.3593 25.528 11.5197 26.1176 11.695 26.774C11.7417 26.6627 11.7627 26.6212 11.7767 26.5782C12.3025 25.0128 12.8251 23.4466 13.3547 21.8827C13.4061 21.7314 13.4723 21.5771 13.5666 21.4497C17.4624 16.1752 21.3621 10.9039 25.261 5.63174C25.6645 5.08741 26.0664 4.54077 26.4683 3.9949ZM16.3253 23.5909C15.5947 23.2224 14.8937 22.8692 14.1616 22.5007C13.681 23.9364 13.2098 25.3437 12.7386 26.751C12.762 26.7633 12.7846 26.7755 12.8079 26.7878C13.9731 25.7283 15.1383 24.6696 16.3253 23.5909Z" fill="black"/>
</g>
<defs>
<clipPath id="clip0_1460_69377">
<rect width="30" height="28.9655" fill="white"/>
</clipPath>
</defs>
</svg>
