<svg width="13" height="14" viewBox="0 0 13 14" fill="none" xmlns="http://www.w3.org/2000/svg">
<path d="M10.3416 1.77435C9.19743 0.630081 7.67612 0 6.05803 0C4.43983 0 2.91852 0.630188 1.77435 1.77435C0.630188 2.91852 0 4.43983 0 6.05792C0 7.67612 0.630188 9.19743 1.77435 10.3416L4.9928 13.5602C5.27649 13.8437 5.65471 14 6.05792 14C6.46103 14 6.83925 13.8437 7.12294 13.5602L10.3416 10.3416C11.4859 9.19743 12.116 7.67612 12.116 6.05792C12.116 4.43983 11.4858 2.91852 10.3416 1.77435ZM9.76161 9.76151L6.54285 12.9802C6.41425 13.1088 6.24196 13.1797 6.05792 13.1797C5.87389 13.1797 5.7016 13.1088 5.57289 12.9802L2.35445 9.76151C1.36516 8.77232 0.820312 7.45694 0.820312 6.05792C0.820312 4.65891 1.36516 3.34363 2.35445 2.35434C3.34373 1.36516 4.65891 0.820312 6.05803 0.820312C7.45705 0.820312 8.77232 1.36516 9.76161 2.35434C11.8037 4.39658 11.8037 7.71948 9.76161 9.76151Z" fill="#434343"/>
<path d="M6.05815 3.89062C4.86293 3.89062 3.89062 4.86293 3.89062 6.05815C3.89062 7.25327 4.86293 8.22557 6.05815 8.22557C7.25327 8.22557 8.22557 7.25327 8.22557 6.05815C8.22557 4.86293 7.25327 3.89062 6.05815 3.89062ZM6.05815 7.40526C5.31528 7.40526 4.71094 6.80092 4.71094 6.05804C4.71094 5.31528 5.31528 4.71094 6.05815 4.71094C6.80092 4.71094 7.40526 5.31528 7.40526 6.05804C7.40526 6.80092 6.80092 7.40526 6.05815 7.40526Z" fill="#434343"/>
</svg>
