<svg width="16" height="19" viewBox="0 0 16 19" fill="none" xmlns="http://www.w3.org/2000/svg">
<path d="M13.6568 2.40805C12.1459 0.85511 10.1369 0 8.00007 0C5.86313 0 3.85412 0.855255 2.34316 2.40805C0.832209 3.96085 0 6.02549 0 8.22147C0 10.4176 0.832209 12.4822 2.34316 14.035L6.59335 18.4031C6.96799 18.7879 7.46746 19 7.99993 19C8.53226 19 9.03173 18.7879 9.40636 18.4031L13.6568 14.035C15.1679 12.4822 16 10.4176 16 8.22147C16 6.02549 15.1678 3.96085 13.6568 2.40805V2.40805ZM12.8909 13.2478L8.64031 17.6159C8.47048 17.7905 8.24296 17.8867 7.99993 17.8867C7.7569 17.8867 7.52938 17.7905 7.35941 17.6159L3.10922 13.2478C1.80279 11.9053 1.08328 10.1201 1.08328 8.22147C1.08328 6.3228 1.80279 4.53778 3.10922 3.19518C4.41565 1.85271 6.15242 1.11328 8.00007 1.11328C9.84758 1.11328 11.5845 1.85271 12.8909 3.19518C15.5877 5.96678 15.5877 10.4764 12.8909 13.2478Z" fill="#434343"/>
<path d="M8.00007 5.28027C6.4217 5.28027 5.1377 6.59983 5.1377 8.22192C5.1377 9.84386 6.4217 11.1634 8.00007 11.1634C9.57831 11.1634 10.8623 9.84386 10.8623 8.22192C10.8623 6.59983 9.57831 5.28027 8.00007 5.28027V5.28027ZM8.00007 10.0501C7.01905 10.0501 6.22098 9.22996 6.22098 8.22177C6.22098 7.21373 7.01905 6.39355 8.00007 6.39355C8.98095 6.39355 9.77903 7.21373 9.77903 8.22177C9.77903 9.22996 8.98095 10.0501 8.00007 10.0501V10.0501Z" fill="#434343"/>
</svg>
