<svg width="44" height="44" viewBox="0 0 44 44" fill="none" xmlns="http://www.w3.org/2000/svg">
<path d="M29.7344 27.4141C29.2598 27.4141 28.875 27.7988 28.875 28.2734V34.2031C28.875 36.5724 26.9474 38.5 24.5781 38.5H15.2996C14.8252 38.5 14.4406 38.8844 14.4402 39.3588L14.439 41.0674L12.3879 39.0163C12.2551 38.7115 11.9512 38.5 11.5998 38.5H6.01562C3.64633 38.5 1.71875 36.5724 1.71875 34.2031V20.9688C1.71875 18.5995 3.64633 16.6719 6.01562 16.6719H14.6953C15.1699 16.6719 15.5547 16.2871 15.5547 15.8125C15.5547 15.3379 15.1699 14.9531 14.6953 14.9531H6.01562C2.69861 14.9531 0 17.6517 0 20.9688V34.2031C0 37.5201 2.69861 40.2188 6.01562 40.2188H11.1597L14.6892 43.7483C14.8536 43.9127 15.0734 44 15.297 44C15.4076 44 15.5193 43.9786 15.6254 43.9347C15.9466 43.8018 16.156 43.4887 16.1562 43.1412L16.1583 40.2188H24.5781C27.8951 40.2188 30.5938 37.5201 30.5938 34.2031V28.2734C30.5938 27.7988 30.2089 27.4141 29.7344 27.4141Z" fill="#FF9900"/>
<path d="M31.5094 0H29.3344C22.447 0 16.8438 5.6033 16.8438 12.4907C16.8438 19.378 22.447 24.9813 29.3343 24.9813H31.5093C32.5843 24.9813 33.6483 24.8447 34.6796 24.5749L37.8925 27.786C38.0569 27.9502 38.2766 28.0375 38.5002 28.0375C38.6109 28.0375 38.7227 28.0161 38.829 27.9721C39.15 27.839 39.3594 27.5257 39.3594 27.1782V22.2062C40.7197 21.1045 41.8497 19.7129 42.6427 18.1583C43.5434 16.3927 44 14.4858 44 12.4907C44 5.6033 38.3967 0 31.5094 0ZM37.9829 21.1007C37.7675 21.263 37.6406 21.5172 37.6406 21.7871V25.1043L35.5376 23.0025C35.374 22.839 35.1545 22.7509 34.9301 22.7509C34.8459 22.7509 34.7608 22.7634 34.6778 22.7889C33.6548 23.1033 32.5889 23.2626 31.5094 23.2626H29.3344C23.3947 23.2626 18.5625 18.4303 18.5625 12.4907C18.5625 6.55102 23.3948 1.71875 29.3344 1.71875H31.5094C37.4491 1.71875 42.2812 6.55102 42.2812 12.4907C42.2812 15.9051 40.7146 19.0433 37.9829 21.1007Z" fill="#FF9900"/>
<path d="M34.2913 9.40331C34.1672 7.60421 32.717 6.15393 30.9178 6.02992C29.8979 5.95988 28.9245 6.30389 28.1796 6.99938C27.4448 7.68525 27.0234 8.6548 27.0234 9.65949C27.0234 10.1341 27.4083 10.5189 27.8828 10.5189C28.3574 10.5189 28.7422 10.1341 28.7422 9.65949C28.7422 9.12161 28.9589 8.62308 29.3523 8.25587C29.7454 7.88901 30.2592 7.70742 30.7997 7.74472C31.7474 7.81003 32.5113 8.57393 32.5766 9.52156C32.6426 10.4786 32.0147 11.3244 31.0836 11.5328C30.3293 11.7015 29.8025 12.3571 29.8025 13.1268V15.1915C29.8025 15.6661 30.1873 16.0508 30.6619 16.0508C31.1365 16.0508 31.5212 15.6661 31.5211 15.1915V13.1955C33.2528 12.7771 34.4146 11.1926 34.2913 9.40331Z" fill="#FF9900"/>
<path d="M31.2697 17.9832C31.1098 17.8234 30.8881 17.7314 30.6621 17.7314C30.4361 17.7314 30.2144 17.8234 30.0545 17.9832C29.8947 18.1431 29.8027 18.3648 29.8027 18.5908C29.8027 18.8177 29.8948 19.0394 30.0545 19.1993C30.2144 19.3591 30.4361 19.4502 30.6621 19.4502C30.8881 19.4502 31.1098 19.3591 31.2697 19.1993C31.4295 19.0386 31.5215 18.8177 31.5215 18.5908C31.5215 18.3648 31.4294 18.1431 31.2697 17.9832Z" fill="#FF9900"/>
<path d="M23.6328 26.6406H5.5C5.02545 26.6406 4.64062 27.0254 4.64062 27.5C4.64062 27.9746 5.02545 28.3594 5.5 28.3594H23.6328C24.1074 28.3594 24.4922 27.9746 24.4922 27.5C24.4922 27.0254 24.1074 26.6406 23.6328 26.6406Z" fill="#FF9900"/>
<path d="M24.2403 31.7049C24.0805 31.5451 23.8588 31.4531 23.6328 31.4531C23.4068 31.4531 23.1851 31.5451 23.0252 31.7049C22.8653 31.8648 22.7734 32.0865 22.7734 32.3125C22.7734 32.5385 22.8654 32.7602 23.0252 32.9201C23.1851 33.0799 23.4068 33.1719 23.6328 33.1719C23.8588 33.1719 24.0805 33.0799 24.2403 32.9201C24.4002 32.7602 24.4922 32.5394 24.4922 32.3125C24.4922 32.0865 24.4001 31.8648 24.2403 31.7049Z" fill="#FF9900"/>
<path d="M20.2526 31.4531H5.5C5.02545 31.4531 4.64062 31.8379 4.64062 32.3125C4.64062 32.7871 5.02545 33.1719 5.5 33.1719H20.2526C20.7273 33.1719 21.112 32.7871 21.112 32.3125C21.112 31.8379 20.7272 31.4531 20.2526 31.4531Z" fill="#FF9900"/>
<path d="M18.0469 21.8281H5.5C5.02545 21.8281 4.64062 22.2129 4.64062 22.6875C4.64062 23.1621 5.02545 23.5469 5.5 23.5469H18.0469C18.5215 23.5469 18.9062 23.1621 18.9062 22.6875C18.9062 22.2129 18.5214 21.8281 18.0469 21.8281Z" fill="#FF9900"/>
</svg>
