<svg width="20" height="21" viewBox="0 0 20 21" fill="none" xmlns="http://www.w3.org/2000/svg">
<path d="M17.2101 4.46191L3.1875 4.46192" stroke="#E62229" stroke-width="1.4" stroke-linecap="round" stroke-linejoin="round"/>
<path d="M8.28516 8.28613V13.3853" stroke="#E62229" stroke-width="1.4" stroke-linecap="round" stroke-linejoin="round"/>
<path d="M12.1113 8.28613V13.3853" stroke="#E62229" stroke-width="1.4" stroke-linecap="round" stroke-linejoin="round"/>
<path d="M15.934 4.46192V16.5723C15.934 16.7414 15.8668 16.9035 15.7473 17.023C15.6277 17.1426 15.4656 17.2097 15.2966 17.2097H5.09833C4.92928 17.2097 4.76716 17.1426 4.64762 17.023C4.52809 16.9035 4.46094 16.7414 4.46094 16.5723V4.46191" stroke="#E62229" stroke-width="1.4" stroke-linecap="round" stroke-linejoin="round"/>
<path d="M13.3856 4.46167V3.18689C13.3856 2.8488 13.2513 2.52455 13.0122 2.28548C12.7732 2.04642 12.4489 1.91211 12.1108 1.91211H8.2865C7.94841 1.91211 7.62416 2.04642 7.38509 2.28548C7.14603 2.52455 7.01172 2.8488 7.01172 3.18689V4.46167" stroke="#E62229" stroke-width="1.4" stroke-linecap="round" stroke-linejoin="round"/>
</svg>
