<svg width="14" height="14" viewBox="0 0 14 14" fill="none" xmlns="http://www.w3.org/2000/svg">
<path d="M13.5624 13.5626H13.1249C11.3221 13.5652 9.57955 12.9135 8.22082 11.7286L8.23015 11.7362L7.7699 11.3372C7.5144 11.3623 7.25657 11.3745 7.00049 11.3745C5.26332 11.3745 3.62649 10.8157 2.39157 9.80126C1.13157 8.76643 0.437988 7.38276 0.437988 5.90576C0.437988 4.42876 1.13157 3.0451 2.39157 2.01026C3.62649 0.995845 5.26332 0.437012 7.00049 0.437012C8.73765 0.437012 10.3745 0.995845 11.6094 2.01026C12.8694 3.0451 13.563 4.42876 13.563 5.90576C13.5637 6.70036 13.3611 7.48192 12.9744 8.1761L12.9867 8.15218C12.6598 8.74821 12.2264 9.27927 11.708 9.71901L11.6998 9.72543C12.0915 10.7186 12.6821 11.6212 13.4352 12.3778L13.563 12.5056L13.5624 13.5626ZM8.05165 10.4243L8.80299 11.0753C9.83078 11.9693 11.1113 12.5213 12.4669 12.6549L12.4943 12.6573C11.7543 11.832 11.1796 10.8724 10.8015 9.83043L10.7822 9.76976L10.6621 9.4291L10.9141 9.23601C12.058 8.3581 12.688 7.17568 12.688 5.90635C12.688 3.37351 10.1365 1.3126 7.00049 1.3126C3.86449 1.3126 1.31299 3.37351 1.31299 5.90635C1.31299 8.43918 3.86449 10.5001 7.00049 10.5001C7.30324 10.5001 7.60132 10.4808 7.89415 10.4441L7.85915 10.4476L8.05165 10.4243Z" fill="#333333"/>
</svg>
