<svg width="14" height="14" viewBox="0 0 14 14" fill="none" xmlns="http://www.w3.org/2000/svg">
<path d="M12.2558 10.7328C13.0906 9.989 13.5625 8.99792 13.5625 7.96892C13.5625 6.87575 13.0509 5.85317 12.1211 5.08958C11.2169 4.34642 10.0193 3.9375 8.75 3.9375C7.48067 3.9375 6.28308 4.34642 5.37892 5.08958C4.44967 5.85317 3.9375 6.87575 3.9375 7.96892C3.9375 9.06208 4.44908 10.0847 5.37892 10.8483C6.28308 11.5908 7.48067 12.0003 8.75 12.0003C8.91917 12.0003 9.0895 11.9928 9.25808 11.9782L9.54625 12.2278C10.5383 13.0908 11.8095 13.5649 13.1244 13.5625H13.5619V12.6315L13.4336 12.5032C12.937 12.0053 12.5413 11.4163 12.2681 10.7683L12.2547 10.7328H12.2558ZM10.1197 11.5663L9.541 11.0647L9.34792 11.0886C9.16825 11.1119 8.96058 11.1248 8.75 11.1248C6.57883 11.1248 4.8125 9.709 4.8125 7.96833C4.8125 6.22767 6.57883 4.81192 8.75 4.81192C10.9212 4.81192 12.6875 6.22767 12.6875 7.96833C12.6875 8.83517 12.2547 9.64483 11.4695 10.2474L11.2175 10.4405L11.3336 10.7695C11.5737 11.4463 11.9271 12.0774 12.3789 12.6356L12.3696 12.6239C11.5339 12.4844 10.7532 12.1164 10.1138 11.5605L10.1197 11.5652V11.5663Z" fill="#333333"/>
<path d="M1.64558 8.68107C2.04701 8.17493 2.36397 7.60722 2.58417 6.9999L2.59758 6.9579L2.71308 6.63065L2.46108 6.43757C1.72025 5.8694 1.3125 5.1064 1.3125 4.28974C1.3125 2.64824 2.98083 1.31299 5.03125 1.31299C6.53975 1.31299 7.84117 2.03574 8.42392 3.07115C8.53183 3.0659 8.64092 3.06299 8.75 3.06299C8.96933 3.06299 9.18653 3.07368 9.40158 3.09507C9.17642 2.51174 8.78558 1.97915 8.24775 1.53757C7.38442 0.828822 6.24225 0.437988 5.03125 0.437988C3.82025 0.437988 2.6775 0.828238 1.81475 1.53757C0.926917 2.26732 0.4375 3.2444 0.4375 4.28974C0.4375 5.26857 0.884333 6.21182 1.67475 6.92115C1.41623 7.54151 1.03938 8.10559 0.56525 8.5819L0.4375 8.70965V9.62549H0.875C1.69524 9.62654 2.50405 9.43323 3.23517 9.0614L3.20542 9.07482C3.12589 8.77712 3.07953 8.47154 3.06717 8.16365L3.06658 8.1549C2.63616 8.40953 2.16422 8.58627 1.67242 8.67699L1.64558 8.68107Z" fill="#333333"/>
</svg>
