<svg width="16" height="9" viewBox="0 0 16 9" fill="none" xmlns="http://www.w3.org/2000/svg">
<path fill-rule="evenodd" clip-rule="evenodd" d="M15.6329 0.609395C15.7442 0.258158 15.6329 0 15.1035 0H13.3531C12.908 0 12.703 0.222987 12.5917 0.468947C12.5917 0.468947 11.7015 2.52391 10.4404 3.85875C10.0325 4.24516 9.84705 4.36796 9.6245 4.36796C9.51322 4.36796 9.35218 4.24516 9.35218 3.89392V0.609395C9.35218 0.187816 9.22303 0 8.85207 0H6.10142C5.82336 0 5.65607 0.195632 5.65607 0.381079C5.65607 0.78075 6.28647 0.872882 6.35148 1.99693V4.43842C6.35148 4.97368 6.24946 5.07079 6.02691 5.07079C5.43352 5.07079 3.99018 3.00647 3.13398 0.644566C2.96619 0.185447 2.7979 0 2.35055 0H0.60014C0.100023 0 0 0.222987 0 0.468947C0 0.908053 0.593513 3.08605 2.76314 5.96653C4.20973 7.9335 6.24746 9 8.10189 9C9.21465 9 9.35218 8.76316 9.35218 8.3552V6.86842C9.35218 6.39474 9.45758 6.30024 9.80979 6.30024C10.0696 6.30024 10.5146 6.42316 11.5532 7.37159C12.74 8.49553 12.9355 9 13.6032 9H15.3536C15.8537 9 16.1038 8.76316 15.9595 8.29575C15.8017 7.82988 15.2351 7.15417 14.4831 6.35293C14.0752 5.89618 13.4631 5.40438 13.2779 5.15854C13.0182 4.84235 13.0923 4.70191 13.2779 4.42101C13.2779 4.42101 15.4103 1.57559 15.6329 0.609514V0.609395Z" fill="#00A2A9"/>
</svg>
