<?xml version="1.0" encoding="UTF-8" standalone="no"?>
<!-- Uploaded to: SVG Repo, www.svgrepo.com, Generator: SVG Repo Mixer Tools -->

<svg
   width="16"
   height="16"
   viewBox="0 0 0.4 0.4"
   version="1.1"
   id="svg8"
   sodipodi:docname="whatsapp.svg"
   inkscape:version="1.1.2 (b8e25be833, 2022-02-05)"
   xmlns:inkscape="http://www.inkscape.org/namespaces/inkscape"
   xmlns:sodipodi="http://sodipodi.sourceforge.net/DTD/sodipodi-0.dtd"
   xmlns="http://www.w3.org/2000/svg"
   xmlns:svg="http://www.w3.org/2000/svg">
  <defs
     id="defs12" />
  <sodipodi:namedview
     id="namedview10"
     pagecolor="#ffffff"
     bordercolor="#666666"
     borderopacity="1.0"
     inkscape:pageshadow="2"
     inkscape:pageopacity="0.0"
     inkscape:pagecheckerboard="0"
     showgrid="false"
     inkscape:zoom="11.752115"
     inkscape:cx="-23.229862"
     inkscape:cy="30.462603"
     inkscape:window-width="1920"
     inkscape:window-height="1017"
     inkscape:window-x="-8"
     inkscape:window-y="-8"
     inkscape:window-maximized="1"
     inkscape:current-layer="g6"
     units="in" />
  <rect
     x="0"
     fill="none"
     width="20"
     height="20"
     id="rect2"
     y="0" />
  <g
     id="g6">
    <path
       d="M 0.37008551,0.09249765 C 0.31025041,-3.0552574e-6 0.18808705,-0.02750327 0.09334812,0.02999717 0.00110232,0.08749761 -0.02881524,0.21249856 0.03101988,0.30499927 l 0.0049863,0.0075 -0.01994504,0.0750006 0.07479389,-0.0200001 0.0074794,0.005 C 0.13074512,0.38999992 0.16564893,0.4 0.20055275,0.4 c 0.037397,0 0.0747939,-0.0100001 0.10720457,-0.0300002 0.0922458,-0.0600005 0.11967023,-0.1825014 0.0623282,-0.27750215 z m -0.0523557,0.19250147 c -0.009973,0.0150001 -0.0224382,0.0250002 -0.0398901,0.0275002 -0.009973,0 -0.0224382,0.005 -0.0723008,-0.0150001 -0.0423832,-0.0200002 -0.077287,-0.0525004 -0.10221832,-0.0900007 -0.01495878,-0.0175001 -0.02243817,-0.0400003 -0.0249313,-0.0625005 0,-0.0200001 0.0074794,-0.0375003 0.01994504,-0.05000038 0.0049863,-0.005 0.0099725,-0.0075001 0.01495878,-0.0075001 h 0.0124656 c 0.004986,0 0.009973,0 0.0124656,0.01000008 0.004986,0.01250009 0.0174519,0.04250032 0.0174519,0.04500034 0.002493,0.0025 0.002493,0.0075 0,0.0100001 0.002493,0.005 0,0.0100001 -0.002493,0.0125001 -0.002493,0.0025 -0.004986,0.0075 -0.007479,0.0100001 -0.004986,0.0025 -0.007479,0.0075 -0.004986,0.0125001 0.009973,0.0150001 0.0224382,0.0300002 0.0349038,0.0425003 0.0149588,0.0125001 0.0299176,0.0225002 0.0473695,0.0300002 0.004986,0.0025 0.009973,0.0025 0.0124656,-0.0025 0.002493,-0.005 0.0149588,-0.0175001 0.019945,-0.0225002 0.004986,-0.005 0.007479,-0.005 0.0124656,-0.0025 l 0.0398901,0.0200001 c 0.004986,0.0025 0.009973,0.005 0.0124656,0.0075 0.002493,0.0075 0.002493,0.0175001 -0.002494,0.0250004 z"
       id="path4"
       style="fill:#00a2a9;fill-opacity:1;stroke-width:0.0249656" />
  </g>
</svg>
